<?xml version="1.0" encoding="UTF-8"?>
<svg id="Layer_4" data-name="Layer 4" xmlns="http://www.w3.org/2000/svg" viewBox="0 0 553.23 288.91">
  <defs>
    <style>
      .cls-1 {
        stroke-width: .53px;
      }

      .cls-1, .cls-2 {
        fill: none;
        stroke: #e7e7e8;
        stroke-linecap: round;
        stroke-linejoin: round;
      }

      .cls-2 {
        stroke-width: .8px;
      }

      .cls-3 {
        fill: #7200b7;
      }

      .cls-3, .cls-4, .cls-5, .cls-6, .cls-7, .cls-8 {
        stroke-width: 0px;
      }

      .cls-4 {
        fill: #8400b7;
      }

      .cls-5 {
        fill: #33b733;
      }

      .cls-6 {
        fill: #18810d;
      }

      .cls-7 {
        fill: #312c6c;
      }

      .cls-8 {
        fill: #fff;
      }
    </style>
  </defs>
  <g>
    <rect class="cls-8" x=".02" y="241.51" width="9.79" height="16.39" rx="4.9" ry="4.9"/>
    <rect class="cls-8" x="20.2" y="234.62" width="9.79" height="23.22" rx="4.9" ry="4.9"/>
    <rect class="cls-8" x="40.28" y="224.8" width="9.79" height="33.04" rx="4.9" ry="4.9"/>
    <rect class="cls-8" x="60.45" y="211.43" width="9.79" height="46.41" rx="4.9" ry="4.9"/>
    <rect class="cls-8" x="80.52" y="194.62" width="9.79" height="63.22" rx="4.9" ry="4.9"/>
    <rect class="cls-8" x="100.68" y="167.73" width="9.79" height="90.11" rx="4.9" ry="4.9"/>
    <rect class="cls-8" x="119.66" y="130.83" width="9.79" height="127.01" rx="4.9" ry="4.9"/>
    <rect class="cls-8" x="141.42" y="90.67" width="9.79" height="167.17" rx="4.9" ry="4.9"/>
    <rect class="cls-8" x="161.03" y="130.84" width="9.79" height="127" rx="4.9" ry="4.9"/>
    <rect class="cls-8" x="181.17" y="191.25" width="9.79" height="66.59" rx="4.9" ry="4.9"/>
    <rect class="cls-8" x="201.37" y="208.54" width="9.79" height="49.3" rx="4.9" ry="4.9"/>
    <rect class="cls-8" x="221.47" y="208.54" width="9.79" height="49.3" rx="4.9" ry="4.9"/>
    <rect class="cls-8" x="241.53" y="208.54" width="9.79" height="49.3" rx="4.9" ry="4.9"/>
    <rect class="cls-8" x="261.69" y="208.54" width="9.79" height="49.3" rx="4.9" ry="4.9"/>
    <rect class="cls-8" x="281.76" y="208.54" width="9.79" height="49.3" rx="4.9" ry="4.9"/>
    <rect class="cls-8" x="301.94" y="208.54" width="9.79" height="49.3" rx="4.9" ry="4.9"/>
    <rect class="cls-8" x="322.03" y="208.54" width="9.79" height="49.3" rx="4.9" ry="4.9"/>
    <rect class="cls-8" x="342.16" y="191.25" width="9.79" height="66.59" rx="4.9" ry="4.9"/>
    <rect class="cls-8" x="462.89" y="194.62" width="9.79" height="63.22" rx="4.9" ry="4.9"/>
    <rect class="cls-8" x="483.01" y="211.43" width="9.79" height="46.41" rx="4.9" ry="4.9"/>
    <rect class="cls-8" x="503.16" y="224.8" width="9.79" height="33.04" rx="4.9" ry="4.9"/>
    <rect class="cls-8" x="523.24" y="234.63" width="9.79" height="23.21" rx="4.9" ry="4.9"/>
    <rect class="cls-8" x="543.41" y="241.51" width="9.79" height="16.33" rx="4.9" ry="4.9"/>
    <rect class="cls-8" x="362.25" y="167.73" width="9.79" height="90.11" rx="4.9" ry="4.9"/>
    <rect class="cls-8" x="442.77" y="167.96" width="9.79" height="89.88" rx="4.9" ry="4.9"/>
    <rect class="cls-8" x="382.41" y="130.84" width="9.79" height="127" rx="4.9" ry="4.9"/>
    <rect class="cls-8" x="422.66" y="130.84" width="9.79" height="127" rx="4.9" ry="4.9"/>
    <rect class="cls-8" x="402.5" y="90.67" width="9.79" height="167.17" rx="4.9" ry="4.9"/>
    <rect class="cls-8" x="80.52" y="234.62" width="9.79" height="23.22" rx="4.9" ry="4.9"/>
  </g>
  <g>
    <path class="cls-8" d="m260.84,185.03l13.67-21.06,9.74-2.25-14.06,18.45s-9.36,17.85-9.36,19.25-3.04,15.38-3.04,15.38l-4.08,5.6-1.02-9.55,2.85-14.25,5.28-11.57Z"/>
    <path class="cls-8" d="m193.2,186.42l22.01-10.9s19.38-8.78,19.82-8.02,4.74,8.91,4.74,9.86.91,11.58.91,11.58l-5.66,21.9-14.32,10.51-10.25-3.71-11.15-12.71-6.11-18.52Z"/>
    <path class="cls-8" d="m295.53,198.61l20.62-16.47,15.07-1.96,5.25,9.47,1,10.03v15.13l-5.11,13.45s-9.75,13.27-10.23,13.27-19.46-5.77-19.55-6.48-10.24-10.2-12.34-10.72c-2.11-.52-5.12-13.27-4.57-15.28.55-2,9.87-10.45,9.87-10.45Z"/>
    <g>
      <path class="cls-5" d="m316.38,155.82c-2.39-1.92-5.41-3.41-7.15-4.4-1.63-.28-3.27-.57-4.9-.84-10.6-1.77-19.41,2.18-27.26,8.8-8.23,6.94-14.18,15.67-19.16,25.13-.39.74-1.2,1.26-1.81,1.89-4.44,10.68-7.34,21.72-7.13,33.35.19,10.44,2.24,20.39,9.26,28.68.2.23.27.57.39.86.69.59,1.39,1.17,2.08,1.76.14.06.23.15.28.29.74.46,1.47.94,2.22,1.39,5.89,3.48,12.05,5.33,18.86,2.99-9.04-3.49-13.69-10.68-15.88-19.58-3.7-15.02-1.02-29.42,5.22-43.27,5-11.1,12-20.67,22.37-27.38,7.4-4.79,15.78-6.41,24.52-3.43.56-.77,1.36-1.62,1.92-2.39-.89-.81-3-3.16-3.83-3.83Zm-60.99,59.5c-4.1-8.4,13.95-47.18,23.62-51.35-13.16,14.47-21.05,31.4-23.62,51.35Z"/>
      <path class="cls-5" d="m180.38,231.51s0-.01-.01-.02c0,0,0,0,0,0l.02.02Z"/>
      <path class="cls-5" d="m194.87,230.97c-.19-.17-.37-.35-.56-.52-.66-.49-2.44-2.18-2.66-2.53-.14-.17-.28-.33-.41-.5,0,0-.07-.09-.07-.09-.24-.21-.48-.43-.72-.64-1.33-1.97-2.67-3.93-4-5.89-.24-.21-.13-.68-.38-.9-.3-.78-1.03-1.48-1.34-2.26v-.02c-1.9-4.36-3.82-8.71-5.71-13.07-.37-.86-.68-1.74-1.01-2.61-.47-.35-1.26-.63-1.36-1.06-4.64-20.28-3.13-39.67,8.06-57.98,3.82-6.25,9.21-11.26,16.76-13.41-1.39-.29-4.08-.96-5.47-1.25-2.2.21-4.3.08-6.5.29-2.25.96-5.68,2.3-7.81,3.48-4.84,2.68-11.01,11.81-11.06,11.9-1.33,2.29-2.7,4.56-4.06,6.84-2.82,4.73-3.43,10.12-4.25,15.36-2.74,17.54-1.28,34.74,7.07,50.52.57,1.08,3.24,5.89,4.79,8.14,1.2,1.75,2.74,3.33,3.94,5.08.84.83,1.79,1.41,2.62,2.24l.23-.02c.18.28.51.49.7.77,2.52,1.47,5.04,2.95,7.59,4.39.47.26,1.04.34,1.57.5,10.65,1.89,13.77,1.39,15.46,1.19-1.26-.85-2.87-1.59-4.09-2.49-2.45-1.79-4.87-3.63-7.31-5.45Zm-11.75-.64c-.1-.05-.21-.1-.31-.15.1.05.2.1.31.15Zm7.32-3.64h0c-.28.13-.56.26-.84.39.28-.13.56-.26.84-.39Zm-9.74,1.76c.16.22.34.42.54.61-.19-.19-.37-.4-.54-.61Z"/>
    </g>
    <g>
      <path class="cls-3" d="m208.97,96.11c.29-.63.75-1.46,1.11-2.06-1.39.16-3.4.32-4.79.48-.35,1.02-.1,2.3-.45,3.31-.15.51-.31,1.02-.46,1.53-.72,1.91-1.44,3.82-2.16,5.73-.3,1.25-.59,2.5-.89,3.75.64-.06,1.29-.11,1.93-.16,1.9-4.2,3.79-8.4,5.71-12.58Z"/>
      <path class="cls-3" d="m157.77,213.88c-.94,0-1.89,0-2.83,0h2.83c-1.27-4.21-2.76-8.37-3.76-12.64-1.02-4.36-.21-9.86-.91-14.29-.08-.48.61-10.53.96-15.8,0-.47.48-2.88.48-3.35-.17-.09-1.71,1.25-1.87,1.16-1,1.53-2.13,2.98-2.97,4.59-4.14,7.96-4.03,16.39-2.54,24.93.52,3.01,1.22,5.99,1.84,8.98.89,1.44,1.3,2.48,2.19,3.92.85,1.37,1.92,3.35,3.02,4.51h0c.69.91,2.3,2.46,4.16,3.63,1.63,1.02,3.53,1.73,4.08,1.86-.68-1.24-1.48-2.54-2.17-3.78-.62-.04-2.27-2.52-2.51-3.71Z"/>
      <path class="cls-3" d="m343.85,120.77c-.45.64-1.06,1.21-1.32,1.92-1.73,4.73-3.38,9.5-5.06,14.25.81.09,1.63.18,2.44.27.16-.05.32-.1.48-.14.73-1.99,1.51-3.97,2.2-5.98,1.2-3.48,2.34-6.99,3.51-10.48-.75.06-1.5.11-2.25.17Z"/>
      <path class="cls-3" d="m283.34,144.28c-12.55,2.77-20.9,11.33-28.6,20.77-1.6,1.97-2.98,4.12-4.47,6.18-1.24,2.02-2.49,4.04-3.73,6.07-2.04,5.25-4.49,10.39-6.03,15.79-2.01,7.04-3.07,14.32-2.6,21.71.19,3,.6,5.99.91,8.99h-.02c.32,1.03.63,2.07.95,3.1l.03.1c.4,1.65.8,3.29,1.2,4.94.24.29.48.58.72.87.29.62.59,1.23.88,1.85l-.03-.04c.35.71.7,1.41,1.05,2.12.15.17.3.34.44.52.18.38.36.77.54,1.15,2.21,3.94,5.51,6.74,9.34,8.99.26.22.53.45.79.67,1.3.4,2.6.81,3.91,1.22-.13-.29-.2-.63-.39-.86-7.02-8.29-9.07-18.24-9.26-28.68-.21-11.63,2.69-22.67,7.13-33.35,1.84-1.47,11.47-19.14,19.58-26.27,1.58-1.39,4.94-3.54,6.7-4.79,2.38-1.68,9.95-4.88,16.28-5.27,6.36-.39,11.47,2.04,11.49,1.92-5.75-3.83-9.73-5.08-10.8-5.57-5.11-2.44-10.47-2.97-16.01-2.14Z"/>
      <path class="cls-3" d="m243.62,236.75s0-.01-.01-.02c0,0,0-.01-.01-.02l.02.04Z"/>
      <path class="cls-3" d="m204.16,163.75c-1.91,3.65-3.07,7.46-3.47,11.56-1.03,10.5.89,20.25,7.91,28.38,5.61,6.5,14.49,7.88,20.86-.33,4.53-5.83,5.48-12.56,5.57-17.66,0-10.59-2.98-19.48-7.69-24.8-7.59-8.58-17.86-7.3-23.18,2.84Z"/>
      <path class="cls-3" d="m221.9,138.56c.73.17,1.46.33,2.19.5-1.41-2.8-4.34-3.43-6.8-4.73-.75-.4-1.56-.71-2.34-1.05-.15,0-.3,0-.45-.04-6.48-1.71-12.45-.49-17.89,3.28-8.77,6.08-12.74,15.14-15.25,25.06-.11.33-.21.66-.31.99-.38,2.38-.76,4.77-1.13,7.15-.06.33-.13.66-.19.99-.09,1.75-.18,3.49-.27,5.24,0,1.43.01,2.86.02,4.29-.14,6.35,1.01,12.53,2.62,18.63,0,0,0,0,0,0,.16.35.32.71.48,1.06.07.3.14.61.21.91.15.5.29.99.44,1.49.19.77.39,1.55.58,2.32.36-.21.72-.41,1.08-.62-.14-.89-.27-1.79-.41-2.68-.28-.96-.55-1.92-.83-2.89-.03-.32-.07-.63-.1-.95-.1-.33-.2-.66-.3-.99-.26-2.06-.51-4.12-.77-6.19-.12-.98-.24-1.96-.36-2.93-.08-1.26-.16-2.53-.25-3.79.09-2.57.18-5.13.26-7.7.21-1.91.41-3.82.62-5.73.1-.33.2-.66.29-.99.22-1.27.44-2.54.66-3.8.27-.96.53-1.93.8-2.89,2.58-7.89,6.2-15.11,12.5-20.81,6.61-5.99,17.4-7.47,24.87-3.12Z"/>
      <path class="cls-3" d="m189.97,217.6s-.01-.01-.01-.01c.17.21.35.41.52.62.26.13.53.25.79.38-.43-1.08-.81-2.18-1.28-3.23-1.68-3.78-3.39-7.55-5.09-11.32-.36.21-.72.41-1.08.62.11.45.15.94.35,1.35,1.92,3.88,3.87,7.74,5.81,11.61Z"/>
    </g>
    <g>
      <path class="cls-6" d="m337.29,192.8c-.1-.37-.12-.77-.17-1.16-.15-.32-.3-.64-.45-.96-.02-.75-2.1-3.05-2.53-3.62,0,0-.13-.15-.13-.15-.58-.43-1.17-.86-1.75-1.29-3.87-1.96-7.81-3.52-12.3-2.51-4.15.93-7.82,2.88-10.76,5.83-3.29,3.31-6.14,7.04-9.22,10.55-.53.61-1.23,1.06-1.85,1.59-4.44,8.63-6.94,17.71-6.23,27.5.32,4.39,1.2,8.63,3.76,12.34,0,0,0,0,0,0,2.63,4.96,6.82,7.51,12.37,7.88,4.37.29,8.18-1.5,11.97-3.33.35-.27,1.46-1.08,2.63-2.02s2.37-2.01,2.37-2.01c3.38-3.25,7.55-9.79,7.55-9.79.07-.07.22-.33.41-.69.42-.8,1-2.07,1.22-2.7-.98-.21-1.96-.42-2.94-.63-.29.36-5.99,8.3-10.53,9.59-6.7,1.92-8.14-4.79-8.79-6.65h0c-.21-.52-1.21-6.87.18-12.5,1.67-6.77,5.9-13.09,7.33-14.49,2.74-2.7,6.38-4.16,10.3-2.49,4.08,1.73,5.35,5.46,5.78,9.49.19,1.81-.25,6.66-.27,6.95h0c-.24.96-.48,1.92-.71,2.88.85.34,1.69.68,2.54,1.02.13.04,1.69-7.5,1.85-8.62.96-6.7.24-13.42-1.6-20Zm-13.25,43.95h0s0,.04,0,.08c0-.04,0-.07,0-.08h0Zm-24.9-15.33c-.38.47-.75.95-1.13,1.42-.2-.08-.41-.16-.61-.25.34-1.59.68-3.17,1.03-4.76l.37-1.52s0,0,0,0c0,0-.08-.07-.08-.07.19-.19.38-.38.57-.57.36-.84.72-1.69,1.08-2.53,3.98-9.27,9.36-17.42,18.37-22.57,1.42-.81,3-1.34,4.76-1.63-13.63,6.8-20.83,18.25-24.36,32.47Z"/>
      <path class="cls-6" d="m365.63,139.93c-6.2-6.51-12.4-13.02-18.6-19.53-.31.06-3.24,7.19-4.44,10.68-.69,2.01-1.46,3.99-2.2,5.98,4.09,5.12,8.17,10.24,12.26,15.36,1.83-1.62,5.5-4.88,5.5-4.88l3.72-3.4s2.54-2.85,3.75-4.21Z"/>
      <polygon class="cls-6" points="190.45 226.69 190.45 226.69 190.45 226.69 190.45 226.69"/>
      <path class="cls-6" d="m246.85,263.25c.04-.05.07-.11.11-.16,0,0-.01-.01-.01-.01-.03.06-.06.12-.09.18Z"/>
      <path class="cls-6" d="m207.79,113.38c2.3,2.16,4.61,4.32,6.92,6.48q1.04-.16,0,0c-.01.16-.04.31-.07.46.84.76,1.68,1.52,2.52,2.28.23-.09.47-.18.7-.27.19-.22.39-.44.58-.65,0,0,0,0,0,0,.6-.49,4.44-3.12,5.58-4.01.87-.21,1.74-.41,2.61-.62,1.15-.29,2.72-.24,3.3-.98.51-.64-.11-2.17-.24-3.31-.29.04-.57.07-.86.11-.9-.96-1.8-1.92-2.71-2.87-.69-.38-11.38-11.09-16.04-15.94-.36.6-.82,1.43-1.11,2.06-1.92,4.19-3.81,8.39-5.71,12.58.18.31.36.63.54.94,1.33,1.25,2.66,2.5,3.99,3.75Z"/>
      <path class="cls-6" d="m334.17,228.26c.28-.22,2.2-4.77,2.87-6.83-.85-.34-1.69-.68-2.54-1.02-1.09,2.41-2.19,4.81-3.28,7.22.98.21,1.96.42,2.94.63Z"/>
      <path class="cls-6" d="m242.64,163c-1.72-4.59-4.46-10.8-6.34-13.49-1.01-1.45-5.63-9.49-11.95-14.16-1.76-1.31-3.72-2.33-5.58-3.5-1.33-.61-4.28-1.81-4.43-1.79-5.13-1.72-10.19-1.18-15.22.45-12.53,5.98-18.23,17-21.54,29.62-1.7,6.49-2.95,15.91-2.47,24.43.52,9.13,2.85,17.15,2.88,17.39.34.87.64,1.75,1.01,2.61,1,2.3,3.98,12.2,9.52,19.74,4.95,6.75,12.49,11.28,13.64,12.13.6.44,2.42,2.24,4.55,2.71,4.31.96,14.13-1.07,18.2-2.87,4.76-2.11,11.41-8.9,13.9-12.46-.31-3-.71-5.99-.91-8.99-.47-7.39.59-14.67,2.6-21.71,1.54-5.4,4.99-12.38,4.99-12.38,1.44-8.62-1.44-13.89-2.87-17.72Zm-13.36-19.7s0,0,0,0h0Zm-44.75,19.19c-.27.96-.53,1.93-.8,2.89-.22,1.27-.44,2.54-.66,3.8-.1.33-.2.66-.29.99-.21,1.91-.42,3.82-.62,5.73-.09,2.57-.18,5.13-.26,7.7.08,1.26.16,2.53.25,3.79.12.98.24,1.96.36,2.93.26,2.06.51,4.12.77,6.19.1.33.2.66.3.99l.1.95c.28.96.55,1.92.83,2.89.14.89.27,1.79.41,2.68,1.7,3.77,3.41,7.54,5.09,11.32.47,1.06.86,2.16,1.28,3.23-.26-.12-.53-.25-.79-.37-.17-.2-.34-.4-.51-.6h-1.04c.35,0,.69,0,1.04,0h0,0,0c-1.94-3.87-3.89-7.73-5.81-11.61-.2-.41-.24-.9-.35-1.35-.19-.77-.39-1.54-.58-2.32-.15-.5-.29-1-.44-1.49-.07-.3-.14-.61-.21-.91-.16-.35-.32-.71-.48-1.06-1.61-6.11-2.77-12.28-2.62-18.63,0-1.43-.01-2.86-.02-4.29.09-1.75.18-3.49.27-5.24l.19-.99c.38-2.38.76-4.77,1.14-7.15.1-.33.21-.66.31-.99,2.51-9.92,6.48-18.97,15.25-25.06,5.44-3.77,11.41-4.99,17.89-3.28h0c.15.04.3.05.45.04.78.35,1.59.65,2.34,1.05,2.45,1.3,5.38,1.93,6.8,4.73-.73-.17-1.46-.33-2.18-.5q-.58.33,0,0c-7.47-4.35-18.27-2.87-24.88,3.12-6.3,5.71-9.92,12.92-12.5,20.81Zm13.52,28.07c2.46,5.46,4.87,10.83,7.24,16.08-2.63-.83-7.92-12.19-7.24-16.08Zm10.56,13.13c-7.01-8.13-8.94-17.88-7.91-28.38.4-4.1,1.56-7.92,3.47-11.56,5.32-10.15,15.59-11.43,23.18-2.84,4.7,5.32,7.69,14.21,7.69,24.8-.09,5.1-1.04,11.83-5.57,17.66-6.38,8.21-15.25,6.84-20.86.33Zm23.8,2.82c-3.45,5.41-8.23,8.94-15.07,8.18-1.92-.21-3.78-1.11-5.63-1.79-.36-.13-.56-.68-.48-1.45.89.41,1.76.86,2.68,1.22,6.79,2.64,13.79-.26,18.03-7.64,4.77-8.3,5.58-17.29,4.29-26.6-.12-.83-.24-1.67-.35-2.5.23-.07.46-.14.69-.21.23.43.6.84.67,1.3,1.56,10.34.98,20.4-4.82,29.48Z"/>
      <polygon class="cls-6" points="243.67 164.02 243.55 164.05 243.57 164.13 243.67 164.02"/>
      <polygon class="cls-6" points="244.6 167.38 244.49 167.4 244.51 167.5 244.6 167.38"/>
    </g>
    <g>
      <path class="cls-4" d="m339.91,137.24c-.8,1.62-1.49,3.31-2.41,4.85-4.59,7.68-9.33,15.28-13.8,23.03-1.35,2.33-2.5,3.65-5.39,2.66-1-.34-2.3.02-3.42,0-.14.17-.28.35-.41.52-.47.16-.95.32-1.42.48l-.02-.02c-5.07-.03-9.04,2.74-12.81,5.53-5.9,4.36-11.05,9.63-14.46,16.18-2.8,5.38-5.12,11.04-7.26,16.72-2.54,6.76-3.2,13.9-2.79,21.08.29,5.07.73,10.14,3.39,14.7.44.75-.2,1.93-.07,2.86,0,0,.35.82.48.96.51.61.91.85,1.44,1.44,3.31,3.7,7.66,6.72,12.84,7.78,10.67,1.32,19.04-3.06,26.19-10.51-3.79,1.82-7.6,3.62-11.97,3.33-5.56-.37-9.75-2.93-12.38-7.9,0,0,0,.02,0,.02-2.56-3.71-3.44-7.95-3.76-12.34-.71-9.79,1.79-18.87,6.23-27.5.12-.53.11-1.14.39-1.57,4-6.22,8.75-11.75,15.31-15.4,5.58-3.1,11.32-3.52,17.08-.45.69.37,1.14,1.16,1.7,1.76.46.5.93.99,1.39,1.49,0,0,.13.15.13.15.44.57,1.51,1.77,1.5,1.9.34.57.69,1.15,1.03,1.72.15.32.3.64.45.96.73,1,1.45,2,2.18,3,.4-1.59.8-3.19,1.2-4.78-1.7-4.99-4.95-8.76-9.25-11.7-.16-.11-.32-.21-.48-.32h-.02c-.63-.33-1.26-.65-1.89-.96h-.02c-.47-.17-.93-.33-1.4-.49-.16-.04-.31-.08-.47-.12-1.3-.27-2.6-.54-3.9-.81l-.43-.03c-.98,0-1.95,0-2.93,0l-.43.03c-.98.15-1.95.29-2.93.44l-.35.07c-.36.11-2.01.42-2.99.88-.83.32-7.63,3.37-8.11,3.37.48-.48,1.97-2.84,4.31-4.31,2.92-1.84,6.88-3.4,9.58-4.27,4.24-1.38,9.08-1.71,12.29-.93,5.33,1.3,9.39,4.46,12.08,9.3.13-.03.26-.02.38.03.52-1.36,1.04-2.73,1.55-4.09.48-1.24.95-2.47,1.43-3.71.99-2.75,3.07-10.13,3.33-11.01.89-2.95,1.87-5.86,2.82-8.79-4.09-5.12-8.17-10.24-12.26-15.36-.16.05-.32.1-.48.14Z"/>
      <path class="cls-4" d="m391.52,77.68c-3.79-21.94-18.42-38.17-20.7-40.7-.53-.74-9.36-10.31-9.54-10.49-1.19-.83-6.84-5.35-8.03-6.18-.48-.48-4.89-2.34-9.58-4.31-4.85-2.04-9.51-3.61-9.58-3.35-.29,1.07,18.3,11.43,19.15,12.93.93,1.62,2.35,1.45,3.83,2.87,1.69,1.62,3.41,4.74,3.83,5.3h0c1.3,2.51,5.74,6.67,8.43,18.49,1.03,4.52-.09,13.99.1,14.04.19-.81-3.09,23.29-9.08,32.5-3.24,4.98-6.13,10.18-9.22,15.26-1.31,2.15-2.74,4.24-4.11,6.36,6.2,6.51,12.4,13.02,18.6,19.53.39-.38.86-.71,1.16-1.15,3.63-5.39,14.05-22.89,14.78-24.49.44-.86,3.49-6.95,5.69-13.54,2.3-6.91,3.74-14.33,3.83-14.84.27-2.27.32-4.3.59-6.57-.05-.55-.05-1.12-.15-1.66Z"/>
      <polygon class="cls-4" points="263.71 34.68 263.72 34.68 263.73 34.67 263.71 34.68"/>
      <path class="cls-4" d="m169.02,221.37c-.83-1.27-1.67-2.55-2.5-3.82l-.46.71c.15-.24.31-.47.46-.71-7.53-13.69-10.21-28.35-8.62-43.82.55-5.38,2.94-10.97,5.25-16.95.31-.81,1.51-4.01,1.92-4.79,1.41-2.73,5.19-7,5.24-7.24-2.4,1.09-5.67,3.43-7.82,5.97-2.57,3.03-4.36,6.94-5.5,9.76-.32.79-2.06,6.07-2.94,11.62-1.09,6.88-1.32,14.21-1.42,14.49.25,4.92.93,12.48,2.85,19.03,2.28,7.74,5.89,14.24,6.7,15.32,1.71,2.29,4.75,4.96,4.75,4.96.5.48,3.54,2.41,7.22,4.14,3.2,1.51,7.09,2.88,7.49,2.8-.18-.28-7.97-5.19-12.64-11.47Z"/>
      <path class="cls-4" d="m214.64,120.32c.04-.15.06-.3.07-.46-2.31-2.16-4.61-4.32-6.92-6.48-1.33-1.25-2.66-2.5-3.99-3.75-.47.37-1.14.64-1.37,1.12-2.23,4.68-4.35,9.42-6.59,14.09-.63,1.3-.7,2.37.33,3.42,1.15.24,3.67.97,4.82,1.21,4.17-1.21,13.26-.28,14.37,0,.51-2.13,1.3-4.75,1.81-6.88-.84-.76-1.68-1.52-2.52-2.28q-.06,1.65,0,0Z"/>
      <path class="cls-4" d="m292.8,48.75c2.51-1.15,5.39-2.59,7.64-3.72,1.66-.84,12.76-4.44,14.84-5.09,1.21-.33,2.43-.66,3.64-.99.65-.11,8.45-1.62,15.66-2.35,5.77-.58,11.11-.44,12.48-.37,3.87.71,7.73,1.42,11.6,2.13-1.75-2.05-3.18-5.46-4.93-7.5-1.97-1.72-3.3-3.07-5.27-4.79-1.14-.76-3.17-1.64-4.31-2.39-9.68-5.41-20.29-5.94-31.12-5.27-3.69.34-7.33,1.21-11.02,1.56q-.06.75,0,0c-1.03.42-12.35,3.1-12.44,3.23-.8.29-2.87.96-2.87.96-2.38.96-13.14,5.41-13.51,5.22-1.39.65-2.77,1.31-4.16,1.96-.97.62-1.94,1.24-2.91,1.86,0,0-.06.07-.06.07-.15.06-.26.17-.34.31-.15.05-.31.11-.46.16-.19.15-.38.3-.57.45,0,0-.04.03-.04.03-.31.16-1.88,1.13-2.36,1.45,0,0-5.12,2.69-5.28,2.85,0,0-.64.32-.97.48-.16.31-1.35.93-1.62,1.14-5.3,4.22-10.73,8.3-15.82,12.77-3.31,2.9-6.36,6.18-9.11,9.63-3.68,4.61-7.22,9.39-10.34,14.39-3.18,5.09-6.21,10.9-9.06,16.19,4.76,5.03,15.6,16.18,16.04,16.9.9.96,1.81,1.92,2.71,2.88.29-.04.57-.07.86-.11.77-1.6,1.55-3.2,2.32-4.8.8-1.43,1.61-2.87,2.41-4.3.15-.53.2-1.12.46-1.58,5.46-9.7,11.8-18.75,19.84-26.52.29-.28,9.74-9.19,20-16.46,7.34-5.19,15.92-9.13,18.08-10.34Zm-29.57-9.77,49.29-18.23s.02.01.02.01c-.09.1-.02-.01-.02-.01h0Z"/>
    </g>
    <path class="cls-4" d="m196.17,128.27c-2.24.07-4.47.15-6.71.22,2.67-4.56,5.31-9.14,8.02-13.68,1.21-2.03,2.57-3.97,3.85-5.96.64-.06,1.29-.11,1.93-.16.18.31.36.63.54.94-.47.37-1.14.64-1.37,1.12-2.23,4.68-4.35,9.42-6.59,14.09-.63,1.3-.7,2.37.33,3.42Z"/>
    <path class="cls-4" d="m279.56,245.71c-3.79-3.74-5.49-8.55-6.58-13.55-4.69-21.67,6.26-49.54,24.41-62.26,4.99-3.5,10.46-5.77,16.7-5.72.38,0,2.11.63,2.78.74-.89,1.56-1.6,2.44-2.39,3.83-5.07-.03-10.48,2.73-14.25,5.51-5.9,4.36-11.05,9.63-14.46,16.18-2.8,5.38-5.12,11.04-7.26,16.72-2.54,6.76-3.2,13.9-2.79,21.08.29,5.07.73,10.14,3.39,14.7.44.75.32,1.84.45,2.77Z"/>
    <path class="cls-4" d="m314.88,167.76c.82-1.26,1.64-2.53,2.46-3.79,1.77-2.39,3.54-4.79,5.31-7.18,0,0-.03,0-.03,0,.37-.49.73-.97,1.1-1.46,4.58-6.14,9.16-12.27,13.75-18.41.81.09,1.63.18,2.44.27-.8,1.62-1.49,3.31-2.41,4.85-4.59,7.69-9.33,15.28-13.8,23.03-1.35,2.33-2.59,3.74-5.48,2.76-1-.34-2.21-.08-3.33-.09Z"/>
    <path class="cls-4" d="m370.43,43.23c-.04-.12-3.14-4.87-5.68-8.08-1.02-1.29-3.89-3.92-7.66-7.18-7.34-6.34-17.84-14.47-23.07-15.51-6.86-1.36-13.73-1.36-20.63-.79-1.8.15-3.57.52-5.36.79-3.38.97-6.75,1.96-10.13,2.9-31.43,8.75-56.98,26.04-76.22,52.49-1.37,1.89-2.82,3.73-4.24,5.59-.78,1.19-1.62,2.34-2.32,3.57-2.25,4-6.62,11.02-8.86,14.64-.84,1.35-1.44,2.39-1.44,2.39,1.52-.3,3.75-.18,5.27-.48,2.85-5.3,5.89-11.58,9.06-16.67,3.12-5,6.66-9.78,10.34-14.39,2.75-3.44,5.8-6.72,9.11-9.63,5.09-4.46,10.51-8.55,15.82-12.77.27-.22.76-.16,1.15-.22.16-.31.31-.61.47-.92.32-.16.65-.32.97-.49h0c.16-.15.32-.31.48-.47h0c.48-.32.97-.64,1.45-.96.63-.16,1.26-.32,1.89-.48.19-.04.38-.08.56-.13l.39-.34.02-.02c.16-.16.33-.31.49-.47v.02c.47-.32.95-.64,1.43-.96.31-.16.61-.33.92-.49l.04-.03c.19-.15.38-.3.57-.44.16-.05.31-.11.46-.16.08-.14.19-.24.34-.31l.06-.07c.97-.62,1.94-1.24,2.91-1.86,1.39-.65,2.77-1.3,4.16-1.96,7.55-3.31,14.88-7.38,22.71-9.78,15.46-4.75,31.21-6.36,46.8-.05,2.5,1.01,4.83,2.41,7.24,3.63.93.51,4.78,3.83,4.78,3.83,0,0,8.12,9.61,9.56,12,1.04,1.45,3.47,6.89,3.83,8.62.32,1.51,1.39,5.18,1.44,6.7.05,1.78,0,4.09,0,6.22,0,2.81.02,5.29-.09,5.76-.48,2.55-.7,5.18-1.48,7.62-1.49,4.66-2.94,9.81-4.66,14.39-1.44,2.87-3.86,8.27-5.75,11.49-4.3,7.32-9.26,13.74-13.71,20.97.75-.06,1.5-.11,2.25-.17.31-.06.62-.13.93-.19,1.37-2.12,2.8-4.2,4.11-6.36,3.09-5.08,5.99-10.28,9.22-15.26,5.99-9.21,9.4-19.48,11.32-30.07,1.52-8.39,1.68-17.12-1.25-25.49Z"/>
    <path class="cls-7" d="m160.4,217.66c-.62-.04-1.23-.08-1.89-.13-.25-1.26-.49-2.46-.73-3.65-1.27-4.21-2.76-8.37-3.76-12.64-1.02-4.36-1.58-8.83-2.28-13.26-.08-.48.25-1.03.38-1.55.17.06.35.11.52.17.54,10.74,2.78,21.05,7.85,30.64.05.1-.06.29-.09.43Z"/>
    <g>
      <path class="cls-8" d="m299.63,185.51s16.28-21.55,34.48-13.41c18.2,8.14,16.28,35.91,10.06,52.19-6.22,16.28-14.84,23.94-14.84,23.94,0,0,17.72-24.42,13.89-47.4-3.83-22.98-17.24-25.38-24.42-24.9-7.18.48-19.15,9.58-19.15,9.58Z"/>
      <path class="cls-8" d="m315.43,164.44s-19.63-2.39-34.95,24.9-8.14,54.59,6.7,63.68c4.79,2.87,7.66,3.35,7.66,3.35,0,0-6.22,1.44-12.93-.96-6.7-2.39-15.8-7.66-17.72-31.6-1.92-23.94,16.76-52.19,30.65-59.38,13.89-7.18,22.51-2.87,22.51-2.87l1.44.48-2.39,2.87-.96-.48Z"/>
      <path class="cls-2" d="m370.01,66.28s-3.35,24.42-26.81,55.07l-5.75,15.32-22.98,31.6"/>
      <path class="cls-2" d="m257.01,186.46s22.51-46.45,52.67-34.95"/>
      <path class="cls-2" d="m250.54,171.38s22.51-37.83,50.76-24.42"/>
      <path class="cls-1" d="m226.36,136.67s-21.39-21.13-40.7,5.75c-2.85,3.97-5.75,9.1-7.51,15.32-6.85,25.38-.15,44.05-.15,44.05"/>
      <path class="cls-1" d="m153.21,186.46s-1.55-34,17.61-42.14"/>
      <path class="cls-1" d="m155.02,166.83s-15.32,9.58-5.75,40.22"/>
      <path class="cls-8" d="m169.86,145.28s-13.89,22.51-6.22,54.59c5.75,24.9,19.15,33.52,19.15,33.52,0,0-13.41-3.35-22.03-27.77-2.82-8-4.79-28.25-2.39-37.35,2.39-9.1,8.14-21.07,11.49-22.98Z"/>
      <path class="cls-1" d="m217.27,73.94s24.9-46.93,90.5-60.81"/>
      <polyline class="cls-1" points="202.42 104.58 205.29 94.05 210.08 93.57 225.88 109.85"/>
      <path class="cls-8" d="m253.18,41.86s42.14-34.48,80.44-25.38c38.31,9.1,34.26,44.21,31.12,57.94-3.83,16.76-19.63,37.35-19.63,37.35,0,0,21.55-28.25,18.67-57.94,0,0-2.39-26.81-31.12-34-12.82-3.2-30.37-1.15-45.49,4.31-18.78,6.77-34,17.72-34,17.72Z"/>
    </g>
    <polygon class="cls-4" points="369.06 180.24 397.31 192.21 393.96 197 425.56 211.36 408.8 220.46 382.26 200.35 388.69 194.13 369.06 180.24"/>
    <polygon class="cls-4" points="358.04 152.47 391.08 157.73 388.69 165.87 358.04 152.47"/>
    <polyline class="cls-4" points="134.96 138.16 105.99 154.9 102.72 147.07"/>
  </g>
  <g>
    <path class="cls-8" d="m201.89,51.47c0,10.53-7.57,21.64-22.26,21.64h-26.95V1.77h19.47c12.66,0,20.71,9.29,20.71,18.9,0,7.57-5,12.26-6.73,12.26,6.86,0,15.75,7.08,15.75,18.54Zm-34.92-35.76v13.94h5.8c3.41,0,6.73-2.92,6.73-7.08s-3.14-6.86-6.46-6.86h-6.06Zm20.93,34.74c0-4.12-2.83-8.23-9.65-8.23h-11.28v16.9h11.33c4.65,0,9.6-3.18,9.6-8.67Z"/>
    <path class="cls-8" d="m215.64,66.25c0-5,4.16-9.16,9.16-9.16s9.16,4.2,9.16,9.16-4.16,9.12-9.16,9.12-9.16-4.07-9.16-9.12Z"/>
    <path class="cls-8" d="m252.05,1.77h25.05c13.81,0,25.09,10.84,25.09,24.12s-11.29,24.03-25.09,24.03h-10.71v23.19h-14.34V1.77Zm35.8,23.99c0-5.4-4.82-9.78-10.75-9.78h-10.71v19.74l10.71.04c5.93.04,10.75-4.47,10.75-10Z"/>
    <path class="cls-8" d="m306.12,66.25c0-5,4.16-9.16,9.16-9.16s9.16,4.2,9.16,9.16-4.16,9.12-9.16,9.12-9.16-4.07-9.16-9.12Z"/>
    <path class="cls-8" d="m412.41,0v73.11h-14.34v-31.07l-20.53,29.87h-.09l-20.58-29.87v31.07h-14.34V0h.8l34.16,47.13L411.61,0h.8Z"/>
    <path class="cls-8" d="m430.49,66.25c0-5,4.16-9.16,9.16-9.16s9.16,4.2,9.16,9.16-4.16,9.12-9.16,9.12-9.16-4.07-9.16-9.12Z"/>
  </g>
  <g>
    <path class="cls-5" d="m19.46,281.53c0,1.01-.21,1.94-.62,2.8-.41.86-.96,1.59-1.65,2.21-.69.61-1.48,1.09-2.37,1.44s-1.84.51-2.83.51l-9.76-.03v-24.18h8.71c1.05,0,2.02.16,2.92.47.9.31,1.68.77,2.34,1.36.66.59,1.18,1.32,1.56,2.18.37.86.56,1.82.56,2.89,0,.91-.2,1.78-.6,2.63-.4.85-.94,1.56-1.6,2.15.52.26.99.6,1.41,1,.41.4.77.85,1.06,1.35.29.49.51,1.02.66,1.57.15.55.23,1.11.23,1.68Zm-5.77-10.28c0-.59-.11-1.09-.33-1.51-.22-.42-.52-.78-.89-1.06-.37-.28-.8-.49-1.28-.63-.48-.14-.99-.21-1.51-.21h-2.75v6.65c.5.02.96.03,1.36.03h1.39c.52,0,1.03-.06,1.51-.18.48-.12.91-.31,1.28-.57.37-.26.67-.6.89-1.01.22-.41.33-.91.33-1.5Zm.91,10c0-.5-.1-.97-.29-1.39-.19-.42-.45-.78-.79-1.07-.33-.29-.72-.52-1.15-.68-.43-.16-.9-.24-1.41-.24-.69-.02-1.36-.02-2.03-.01-.66.01-1.34.01-2.03.01v6.68h3.51c.5,0,1.01-.06,1.51-.18.5-.12.95-.32,1.34-.59.39-.27.71-.61.95-1.03.24-.41.36-.91.36-1.5Z"/>
    <path class="cls-5" d="m40.95,288.46h-5.16l-1.72-5.5c-.18-.6-.41-1.16-.68-1.66-.27-.5-.6-.94-.98-1.3-.38-.36-.84-.65-1.37-.85-.53-.2-1.16-.3-1.88-.3h-1.75v9.61h-4.62v-24.15l9.53-.03c1.03,0,1.98.18,2.87.53.88.35,1.65.84,2.29,1.47.64.62,1.15,1.36,1.51,2.21.36.85.54,1.76.54,2.75,0,.71-.11,1.39-.33,2.05-.22.66-.53,1.28-.93,1.84-.4.56-.88,1.06-1.43,1.5-.55.43-1.16.76-1.82.98.76.28,1.38.69,1.86,1.22.48.53.86,1.17,1.14,1.92.14.34.27.69.39,1.03.12.34.25.7.38,1.07.13.37.27.78.42,1.21.15.43.32.91.5,1.44.22.66.43,1.23.62,1.71.19.47.4.89.62,1.25Zm-6.11-16.9c0-.56-.11-1.08-.32-1.54-.21-.46-.5-.87-.86-1.21-.36-.34-.79-.61-1.28-.8-.49-.19-1.02-.29-1.59-.29h-3.39v7.53h3.39c.56,0,1.09-.08,1.59-.26.49-.17.92-.42,1.28-.74.36-.32.65-.71.86-1.16.21-.45.32-.96.32-1.53Z"/>
    <path class="cls-5" d="m48.54,288.46h-4.68v-24.15h4.68v24.15Z"/>
    <path class="cls-5" d="m74.56,276.37c0,1.67-.28,3.24-.85,4.7-.57,1.46-1.35,2.74-2.36,3.84-1.01,1.1-2.21,1.96-3.61,2.6-1.4.63-2.93.95-4.58.95h-10.1v-24.18h10.1c1.65,0,3.18.32,4.58.97,1.4.65,2.6,1.51,3.61,2.6,1.01,1.09,1.79,2.37,2.36,3.84.56,1.47.85,3.03.85,4.68Zm-4.74-.12c.02-1.13-.15-2.2-.51-3.2-.36-1.01-.89-1.89-1.57-2.65-.69-.75-1.53-1.35-2.52-1.78-1-.43-2.12-.65-3.37-.65h-4.08v16.5h4.08c1.23,0,2.33-.21,3.31-.62.98-.41,1.81-.99,2.49-1.72.68-.74,1.21-1.6,1.59-2.6.37-1,.57-2.09.59-3.28Z"/>
    <path class="cls-5" d="m100.44,284.01c-.69.84-1.43,1.58-2.24,2.19-.81.62-1.65,1.12-2.52,1.53-.88.4-1.77.7-2.69.89-.92.19-1.83.29-2.74.29-1.79,0-3.48-.32-5.05-.97-1.57-.65-2.94-1.53-4.11-2.66-1.17-1.13-2.1-2.46-2.78-3.99-.69-1.53-1.03-3.18-1.03-4.96s.34-3.36,1.01-4.88c.68-1.52,1.6-2.85,2.78-3.98,1.18-1.13,2.55-2.02,4.13-2.67,1.57-.66,3.25-.98,5.05-.98,2.08,0,3.96.42,5.67,1.27,1.7.85,3.15,1.98,4.34,3.39l-3.17,3.23c-.9-1.23-1.92-2.11-3.05-2.65-1.13-.53-2.38-.8-3.77-.8-1.15,0-2.22.21-3.23.63-1.01.42-1.89,1-2.64,1.74-.75.74-1.35,1.59-1.78,2.57-.43.98-.65,2.02-.65,3.13s.22,2.18.65,3.16c.43.98,1.03,1.84,1.78,2.59.75.74,1.63,1.33,2.64,1.75,1,.42,2.08.63,3.23.63,1.09,0,2.11-.2,3.08-.6.96-.4,1.83-.94,2.59-1.6v-2.33h-4.96v-3.99h9.46v8.07Z"/>
    <path class="cls-5" d="m108.75,288.46h-4.68v-24.15h4.68v24.15Z"/>
    <path class="cls-5" d="m133.38,288.46h-4.59l-10.91-16.96v16.96h-4.59v-24.18h5.26l10.25,15.78v-15.78h4.59v24.18Z"/>
    <path class="cls-5" d="m160.16,284.01c-.69.84-1.43,1.58-2.24,2.19-.81.62-1.65,1.12-2.52,1.53-.88.4-1.77.7-2.69.89-.92.19-1.83.29-2.74.29-1.79,0-3.48-.32-5.05-.97-1.57-.65-2.94-1.53-4.11-2.66-1.17-1.13-2.1-2.46-2.78-3.99-.69-1.53-1.03-3.18-1.03-4.96s.34-3.36,1.01-4.88c.68-1.52,1.6-2.85,2.78-3.98,1.18-1.13,2.55-2.02,4.13-2.67,1.57-.66,3.25-.98,5.05-.98,2.08,0,3.96.42,5.67,1.27,1.7.85,3.15,1.98,4.34,3.39l-3.17,3.23c-.9-1.23-1.92-2.11-3.05-2.65-1.13-.53-2.38-.8-3.77-.8-1.15,0-2.22.21-3.23.63-1.01.42-1.89,1-2.64,1.74-.75.74-1.35,1.59-1.78,2.57-.43.98-.65,2.02-.65,3.13s.22,2.18.65,3.16c.43.98,1.03,1.84,1.78,2.59.75.74,1.63,1.33,2.64,1.75,1,.42,2.08.63,3.23.63,1.09,0,2.11-.2,3.08-.6.96-.4,1.83-.94,2.59-1.6v-2.33h-4.96v-3.99h9.46v8.07Z"/>
    <path class="cls-5" d="m190.27,272.41c0,1.15-.22,2.22-.65,3.22-.43,1-1.02,1.86-1.77,2.6-.75.74-1.63,1.31-2.64,1.72-1.01.41-2.08.62-3.21.62h-4v7.89h-4.68v-24.15h8.69c1.13,0,2.2.21,3.21.62,1.01.41,1.89.98,2.63,1.71.75.73,1.34,1.58,1.77,2.57.43.99.65,2.06.65,3.2Zm-4.69-.06c0-.62-.12-1.21-.35-1.75-.23-.54-.55-1.02-.95-1.42-.4-.4-.88-.72-1.42-.97-.54-.24-1.13-.36-1.75-.36h-3.11v9.13h3.11c.62,0,1.21-.13,1.75-.38.54-.25,1.02-.59,1.42-1.01.4-.42.72-.91.95-1.47.23-.55.35-1.14.35-1.77Z"/>
    <path class="cls-5" d="m217.98,276.37c0,1.73-.34,3.37-1.01,4.9-.67,1.53-1.6,2.86-2.76,3.99-1.17,1.13-2.53,2.02-4.08,2.68-1.55.65-3.2.98-4.95.98s-3.41-.33-4.97-.98c-1.56-.65-2.92-1.55-4.09-2.68-1.17-1.13-2.09-2.45-2.76-3.98-.67-1.52-1.01-3.16-1.01-4.91s.34-3.39,1.01-4.93c.67-1.53,1.59-2.86,2.76-3.99,1.17-1.13,2.53-2.01,4.09-2.66,1.56-.65,3.21-.97,4.97-.97s3.4.32,4.95.97c1.55.65,2.91,1.54,4.08,2.68,1.17,1.14,2.09,2.47,2.76,3.99.67,1.52,1.01,3.16,1.01,4.91Zm-4.68,0c0-1.11-.21-2.15-.64-3.13-.42-.98-1.01-1.83-1.74-2.57-.74-.74-1.6-1.32-2.59-1.75-.99-.43-2.04-.65-3.15-.65s-2.19.22-3.18.65c-.99.43-1.85,1.02-2.59,1.75-.74.74-1.32,1.59-1.74,2.57-.42.98-.64,2.02-.64,3.13s.21,2.13.64,3.11c.42.99,1,1.85,1.74,2.58.74.74,1.6,1.32,2.59,1.75.99.43,2.05.65,3.18.65s2.16-.22,3.15-.65c.99-.43,1.85-1.02,2.59-1.75.74-.74,1.32-1.6,1.74-2.58.42-.99.64-2.03.64-3.11Z"/>
    <path class="cls-5" d="m237.78,282.11c0,.91-.2,1.77-.59,2.58-.39.82-.94,1.54-1.65,2.16-.71.62-1.54,1.12-2.51,1.5-.97.37-2.04.56-3.2.56-1.05,0-1.99-.06-2.83-.18-.84-.12-1.62-.31-2.36-.57-.74-.26-1.44-.6-2.12-1.01-.68-.41-1.38-.91-2.1-1.5l3.33-3.35c.97.81,1.91,1.37,2.84,1.71.93.33,1.93.5,3.02.5.44,0,.86-.07,1.25-.2.39-.13.74-.31,1.03-.53.29-.22.52-.48.69-.78.17-.3.26-.63.26-1,0-.38-.07-.72-.21-1.03-.14-.3-.39-.59-.76-.88-.36-.28-.87-.57-1.51-.86-.65-.29-1.47-.62-2.48-.98-.89-.32-1.74-.69-2.55-1.1-.82-.41-1.53-.91-2.15-1.5-.62-.58-1.11-1.27-1.48-2.06-.37-.78-.56-1.71-.56-2.78s.21-1.98.62-2.84c.41-.87.98-1.61,1.69-2.22.72-.62,1.55-1.09,2.51-1.44.96-.34,1.99-.51,3.1-.51,1.85,0,3.42.24,4.68.73,1.27.48,2.4,1.19,3.39,2.11l-3.26,3.3c-.6-.59-1.28-1.03-2.03-1.35-.75-.31-1.62-.47-2.63-.47-.46,0-.89.07-1.28.21-.39.14-.73.33-1.01.56-.28.23-.51.5-.68.82-.17.31-.26.64-.26.98,0,.38.08.73.24,1.04.16.31.43.62.82.91.38.29.89.58,1.53.88.63.29,1.43.61,2.37.95,1.21.42,2.25.89,3.11,1.39.87.5,1.57,1.06,2.12,1.66.54.6.95,1.28,1.21,2.04.26.76.39,1.61.39,2.56Z"/>
    <path class="cls-5" d="m257.25,282.11c0,.91-.2,1.77-.59,2.58-.39.82-.94,1.54-1.65,2.16-.71.62-1.54,1.12-2.51,1.5-.97.37-2.04.56-3.2.56-1.05,0-1.99-.06-2.83-.18-.84-.12-1.62-.31-2.36-.57-.74-.26-1.44-.6-2.12-1.01-.68-.41-1.38-.91-2.1-1.5l3.33-3.35c.97.81,1.91,1.37,2.84,1.71.93.33,1.93.5,3.02.5.44,0,.86-.07,1.25-.2.39-.13.74-.31,1.03-.53.29-.22.52-.48.69-.78.17-.3.26-.63.26-1,0-.38-.07-.72-.21-1.03-.14-.3-.39-.59-.76-.88-.36-.28-.87-.57-1.51-.86-.65-.29-1.47-.62-2.48-.98-.89-.32-1.74-.69-2.55-1.1-.82-.41-1.53-.91-2.15-1.5-.62-.58-1.11-1.27-1.48-2.06-.37-.78-.56-1.71-.56-2.78s.21-1.98.62-2.84c.41-.87.98-1.61,1.69-2.22.72-.62,1.55-1.09,2.51-1.44.96-.34,1.99-.51,3.1-.51,1.85,0,3.42.24,4.68.73,1.27.48,2.4,1.19,3.39,2.11l-3.26,3.3c-.6-.59-1.28-1.03-2.03-1.35-.75-.31-1.62-.47-2.63-.47-.46,0-.89.07-1.28.21-.39.14-.73.33-1.01.56-.28.23-.51.5-.68.82-.17.31-.26.64-.26.98,0,.38.08.73.24,1.04.16.31.43.62.82.91.38.29.89.58,1.53.88.63.29,1.43.61,2.37.95,1.21.42,2.25.89,3.11,1.39.87.5,1.57,1.06,2.12,1.66.54.6.95,1.28,1.21,2.04.26.76.39,1.61.39,2.56Z"/>
    <path class="cls-5" d="m265.26,288.46h-4.68v-24.15h4.68v24.15Z"/>
    <path class="cls-5" d="m287.02,281.53c0,1.01-.21,1.94-.62,2.8-.41.86-.96,1.59-1.65,2.21-.69.61-1.48,1.09-2.37,1.44-.9.34-1.84.51-2.83.51l-9.76-.03v-24.18h8.71c1.05,0,2.02.16,2.92.47.9.31,1.68.77,2.34,1.36s1.18,1.32,1.56,2.18c.37.86.56,1.82.56,2.89,0,.91-.2,1.78-.6,2.63-.4.85-.94,1.56-1.6,2.15.53.26.99.6,1.41,1,.41.4.77.85,1.06,1.35.29.49.51,1.02.66,1.57.15.55.23,1.11.23,1.68Zm-5.77-10.28c0-.59-.11-1.09-.33-1.51-.22-.42-.52-.78-.89-1.06-.37-.28-.8-.49-1.29-.63-.49-.14-.99-.21-1.51-.21h-2.75v6.65c.5.02.96.03,1.36.03h1.39c.52,0,1.03-.06,1.51-.18.48-.12.91-.31,1.29-.57.37-.26.67-.6.89-1.01.22-.41.33-.91.33-1.5Zm.91,10c0-.5-.1-.97-.29-1.39-.19-.42-.45-.78-.79-1.07-.33-.29-.71-.52-1.15-.68-.43-.16-.9-.24-1.41-.24-.69-.02-1.36-.02-2.03-.01-.66.01-1.34.01-2.03.01v6.68h3.51c.5,0,1.01-.06,1.51-.18.5-.12.95-.32,1.34-.59.39-.27.71-.61.95-1.03.24-.41.36-.91.36-1.5Z"/>
    <path class="cls-5" d="m295.03,288.46h-4.69v-24.15h4.69v24.15Z"/>
    <path class="cls-5" d="m315.91,288.46h-16.35v-24.15h4.78v19.62h11.58v4.53Z"/>
    <path class="cls-5" d="m323.32,288.46h-4.69v-24.15h4.69v24.15Z"/>
    <path class="cls-5" d="m344.45,268.48h-6.68v19.98h-4.75v-19.98h-6.68v-4.17h18.11v4.17Z"/>
    <path class="cls-5" d="m352.16,288.46h-4.69v-24.15h4.69v24.15Z"/>
    <path class="cls-5" d="m372.65,288.46h-15.96v-24.15h15.96v3.87h-11.37v5.77h11.21v3.78h-11.21v6.65h11.37v4.08Z"/>
    <path class="cls-5" d="m392.42,282.11c0,.91-.2,1.77-.59,2.58-.39.82-.94,1.54-1.65,2.16-.71.62-1.54,1.12-2.51,1.5-.97.37-2.04.56-3.2.56-1.05,0-1.99-.06-2.83-.18-.84-.12-1.62-.31-2.36-.57-.74-.26-1.44-.6-2.11-1.01-.68-.41-1.38-.91-2.1-1.5l3.32-3.35c.97.81,1.91,1.37,2.84,1.71.93.33,1.93.5,3.02.5.44,0,.86-.07,1.25-.2.39-.13.74-.31,1.03-.53.29-.22.52-.48.69-.78.17-.3.26-.63.26-1,0-.38-.07-.72-.21-1.03-.14-.3-.39-.59-.76-.88-.36-.28-.87-.57-1.51-.86-.64-.29-1.47-.62-2.48-.98-.89-.32-1.74-.69-2.55-1.1-.82-.41-1.53-.91-2.15-1.5-.62-.58-1.11-1.27-1.48-2.06-.37-.78-.56-1.71-.56-2.78s.21-1.98.62-2.84c.41-.87.98-1.61,1.69-2.22.72-.62,1.55-1.09,2.51-1.44.96-.34,1.99-.51,3.1-.51,1.86,0,3.42.24,4.69.73,1.27.48,2.4,1.19,3.39,2.11l-3.26,3.3c-.6-.59-1.28-1.03-2.03-1.35s-1.62-.47-2.63-.47c-.46,0-.89.07-1.28.21-.39.14-.73.33-1.01.56-.28.23-.51.5-.68.82-.17.31-.26.64-.26.98,0,.38.08.73.24,1.04.16.31.43.62.82.91.38.29.89.58,1.53.88.63.29,1.42.61,2.37.95,1.21.42,2.25.89,3.11,1.39.87.5,1.57,1.06,2.12,1.66.54.6.95,1.28,1.21,2.04.26.76.39,1.61.39,2.56Z"/>
    <path class="cls-5" d="m409.95,288.46h-4.69v-24.15h4.69v24.15Z"/>
    <path class="cls-5" d="m434.58,288.46h-4.59l-10.91-16.96v16.96h-4.59v-24.18h5.26l10.25,15.78v-15.78h4.59v24.18Z"/>
    <path class="cls-5" d="m472.75,288.46h-4.59v-16.14l-7.62,12.85-7.32-12.97v16.26h-4.59v-24.18h5.29l6.71,12,7.01-12h5.11v24.18Z"/>
    <path class="cls-5" d="m498.48,264.28v13.12c0,1.61-.24,3.11-.73,4.5-.48,1.39-1.18,2.6-2.1,3.64-.92,1.04-2.04,1.85-3.35,2.45-1.32.59-2.83.89-4.52.89s-3.14-.29-4.47-.88c-1.33-.58-2.46-1.39-3.4-2.4-.94-1.02-1.66-2.22-2.16-3.6-.5-1.38-.75-2.87-.75-4.46v-13.27h4.68v13.3c0,.93.13,1.8.39,2.61.26.82.65,1.53,1.15,2.13.5.6,1.13,1.08,1.89,1.44.75.35,1.62.53,2.58.53,1.03,0,1.92-.17,2.68-.5.75-.33,1.38-.8,1.87-1.39.49-.59.87-1.29,1.12-2.1.25-.8.38-1.69.38-2.66v-13.36h4.75Z"/>
    <path class="cls-5" d="m518.55,282.11c0,.91-.2,1.77-.59,2.58-.39.82-.94,1.54-1.65,2.16-.71.62-1.54,1.12-2.51,1.5-.97.37-2.04.56-3.2.56-1.05,0-1.99-.06-2.83-.18-.84-.12-1.62-.31-2.36-.57-.74-.26-1.44-.6-2.11-1.01-.68-.41-1.38-.91-2.1-1.5l3.32-3.35c.97.81,1.91,1.37,2.84,1.71.93.33,1.93.5,3.02.5.44,0,.86-.07,1.25-.2.39-.13.74-.31,1.03-.53.29-.22.52-.48.69-.78.17-.3.26-.63.26-1,0-.38-.07-.72-.21-1.03-.14-.3-.39-.59-.76-.88-.36-.28-.87-.57-1.51-.86-.64-.29-1.47-.62-2.48-.98-.89-.32-1.74-.69-2.55-1.1-.82-.41-1.53-.91-2.15-1.5-.62-.58-1.11-1.27-1.48-2.06-.37-.78-.56-1.71-.56-2.78s.21-1.98.62-2.84c.41-.87.98-1.61,1.69-2.22.72-.62,1.55-1.09,2.51-1.44.96-.34,1.99-.51,3.1-.51,1.86,0,3.42.24,4.69.73,1.27.48,2.4,1.19,3.39,2.11l-3.26,3.3c-.6-.59-1.28-1.03-2.03-1.35-.75-.31-1.62-.47-2.63-.47-.46,0-.89.07-1.28.21-.39.14-.73.33-1.01.56-.28.23-.51.5-.68.82-.17.31-.26.64-.26.98,0,.38.08.73.24,1.04.16.31.43.62.82.91.38.29.89.58,1.53.88.63.29,1.43.61,2.37.95,1.21.42,2.25.89,3.11,1.39.87.5,1.57,1.06,2.12,1.66.54.6.95,1.28,1.21,2.04.26.76.39,1.61.39,2.56Z"/>
    <path class="cls-5" d="m526.56,288.46h-4.69v-24.15h4.69v24.15Z"/>
    <path class="cls-5" d="m553.18,284.1c-1.21,1.47-2.68,2.64-4.4,3.51-1.72.87-3.62,1.3-5.7,1.3-1.79,0-3.48-.33-5.05-.98-1.57-.65-2.94-1.55-4.1-2.68-1.16-1.13-2.08-2.45-2.75-3.98-.67-1.52-1.01-3.16-1.01-4.91s.34-3.39,1.01-4.91c.67-1.52,1.59-2.85,2.75-3.99,1.16-1.14,2.53-2.03,4.1-2.68,1.57-.65,3.25-.97,5.05-.97,2.08,0,3.98.43,5.7,1.3,1.72.87,3.16,2,4.31,3.39l-3.23,3.32c-.75-1.07-1.71-1.93-2.89-2.58-1.18-.65-2.47-.98-3.89-.98-1.13,0-2.19.22-3.19.65-1,.43-1.87,1.02-2.61,1.75-.75.74-1.34,1.59-1.77,2.57-.43.98-.65,2.02-.65,3.13s.22,2.12.65,3.1c.43.98,1.02,1.83,1.77,2.57.74.74,1.62,1.32,2.61,1.75,1,.43,2.06.65,3.19.65,1.49,0,2.81-.34,3.96-1.01,1.15-.67,2.11-1.57,2.87-2.68l3.26,3.36Z"/>
  </g>
</svg>