<?xml version="1.0" encoding="UTF-8"?>
<svg id="Layer_1" data-name="Layer 1" xmlns="http://www.w3.org/2000/svg" viewBox="0 0 345.05 96.77">
  <defs>
    <style>
      .cls-1 {
        fill: #33b433;
      }

      .cls-1, .cls-2 {
        stroke-width: 0px;
      }

      .cls-2 {
        fill: #fff;
      }
    </style>
  </defs>
  <g>
    <path class="cls-2" d="m88.75,45.91c0,9.4-6.75,19.31-19.86,19.31h-24.04V1.58h17.37c11.29,0,18.48,8.29,18.48,16.86,0,6.75-4.46,10.94-6,10.94,6.12,0,14.05,6.32,14.05,16.54Zm-31.15-31.9v12.44h5.17c3.04,0,6-2.61,6-6.32s-2.8-6.12-5.76-6.12h-5.41Zm18.67,30.99c0-3.67-2.53-7.34-8.61-7.34h-10.07v15.08h10.11c4.14,0,8.57-2.84,8.57-7.74Z"/>
    <path class="cls-2" d="m101.02,59.1c0-4.46,3.71-8.17,8.17-8.17s8.17,3.75,8.17,8.17-3.71,8.13-8.17,8.13-8.17-3.63-8.17-8.13Z"/>
    <path class="cls-2" d="m133.5,1.58h22.35c12.32,0,22.39,9.67,22.39,21.52s-10.07,21.44-22.39,21.44h-9.55v20.69h-12.79V1.58Zm31.94,21.4c0-4.82-4.3-8.73-9.59-8.73h-9.55v17.61l9.55.04c5.29.04,9.59-3.99,9.59-8.92Z"/>
    <path class="cls-2" d="m181.73,59.1c0-4.46,3.71-8.17,8.17-8.17s8.17,3.75,8.17,8.17-3.71,8.13-8.17,8.13-8.17-3.63-8.17-8.13Z"/>
    <path class="cls-2" d="m276.55,0v65.22h-12.79v-27.72l-18.32,26.65h-.08l-18.36-26.65v27.72h-12.79V0h.71l30.48,42.05L275.84,0h.71Z"/>
    <path class="cls-2" d="m292.69,59.1c0-4.46,3.71-8.17,8.17-8.17s8.17,3.75,8.17,8.17-3.71,8.13-8.17,8.13-8.17-3.63-8.17-8.13Z"/>
  </g>
  <g>
    <path class="cls-1" d="m10.79,91.08c0,.63-.13,1.22-.39,1.75-.26.54-.6,1-1.03,1.38-.43.38-.92.68-1.49.9s-1.15.32-1.77.32l-6.12-.02v-15.15h5.45c.66,0,1.26.1,1.83.29.56.2,1.05.48,1.47.85.42.37.74.83.97,1.36.23.54.35,1.14.35,1.81,0,.57-.13,1.12-.38,1.65-.25.53-.59.98-1,1.34.33.16.62.37.88.63.26.25.48.53.66.84.18.31.32.64.42.98.09.35.14.7.14,1.05Zm-3.62-6.44c0-.37-.07-.68-.21-.95-.14-.27-.33-.49-.56-.66-.23-.18-.5-.31-.8-.4-.3-.09-.62-.13-.95-.13h-1.72v4.17c.32.01.6.02.85.02h.87c.33,0,.64-.04.95-.11.3-.08.57-.2.8-.36.23-.16.42-.38.56-.63.14-.26.21-.57.21-.94Zm.57,6.27c0-.32-.06-.61-.18-.87-.12-.27-.28-.49-.49-.67-.21-.18-.45-.32-.72-.43-.27-.1-.57-.15-.88-.15-.43-.01-.85-.02-1.27,0-.42,0-.84,0-1.27,0v4.18h2.2c.32,0,.63-.04.95-.11.32-.08.6-.2.84-.37.25-.17.45-.38.6-.64.15-.26.23-.57.23-.94Z"/>
    <path class="cls-1" d="m24.25,95.42h-3.23l-1.08-3.45c-.11-.38-.26-.73-.42-1.04-.17-.31-.38-.59-.61-.81-.24-.23-.53-.4-.86-.53-.33-.13-.73-.19-1.18-.19h-1.1v6.02h-2.9v-15.13l5.97-.02c.64,0,1.24.11,1.8.33.55.22,1.03.53,1.44.92.4.39.72.85.95,1.38.23.53.34,1.1.34,1.72,0,.44-.07.87-.21,1.29-.14.42-.33.8-.58,1.16-.25.35-.55.67-.89.94-.34.27-.72.48-1.14.62.48.18.86.43,1.17.77.3.33.54.74.72,1.2.09.22.17.43.24.64.08.22.15.44.24.67.08.23.17.49.26.76.09.27.2.57.31.9.14.42.27.77.39,1.07.12.3.25.56.39.79Zm-3.82-10.58c0-.35-.07-.68-.2-.97-.13-.29-.31-.54-.54-.76-.23-.21-.5-.38-.8-.5-.31-.12-.64-.18-.99-.18h-2.12v4.71h2.12c.35,0,.68-.05.99-.16.31-.11.58-.26.8-.46.23-.2.41-.45.54-.73.13-.28.2-.6.2-.96Z"/>
    <path class="cls-1" d="m29.01,95.42h-2.93v-15.13h2.93v15.13Z"/>
    <path class="cls-1" d="m45.31,87.85c0,1.05-.18,2.03-.53,2.94-.35.92-.85,1.72-1.48,2.4-.63.69-1.39,1.23-2.26,1.63-.88.4-1.83.6-2.87.6h-6.32v-15.15h6.32c1.04,0,1.99.2,2.87.61.88.4,1.63.95,2.26,1.63.63.68,1.12,1.48,1.48,2.4.35.92.53,1.9.53,2.93Zm-2.97-.08c.01-.71-.09-1.38-.32-2.01-.23-.63-.56-1.18-.98-1.66-.43-.47-.96-.85-1.58-1.12-.62-.27-1.33-.41-2.11-.41h-2.56v10.34h2.56c.77,0,1.46-.13,2.07-.39.61-.26,1.13-.62,1.56-1.08.43-.46.76-1,.99-1.63.23-.62.36-1.31.37-2.05Z"/>
    <path class="cls-1" d="m61.51,92.64c-.43.53-.9.99-1.4,1.37-.51.39-1.03.7-1.58.96-.55.25-1.11.44-1.68.56-.57.12-1.15.18-1.71.18-1.12,0-2.18-.2-3.16-.61-.98-.4-1.84-.96-2.58-1.67-.73-.71-1.31-1.54-1.74-2.5-.43-.96-.64-1.99-.64-3.11s.21-2.1.63-3.06c.42-.95,1-1.78,1.74-2.49.74-.71,1.6-1.26,2.58-1.67.98-.41,2.04-.62,3.16-.62,1.3,0,2.48.27,3.55.8,1.07.53,1.97,1.24,2.72,2.12l-1.99,2.03c-.57-.77-1.2-1.32-1.91-1.66-.71-.33-1.49-.5-2.36-.5-.72,0-1.39.13-2.02.4-.63.27-1.18.63-1.65,1.09-.47.46-.84,1-1.12,1.61-.27.61-.41,1.27-.41,1.96s.14,1.37.41,1.98c.27.61.64,1.15,1.12,1.62.47.47,1.02.83,1.65,1.1.63.27,1.3.4,2.02.4.68,0,1.32-.13,1.93-.38.6-.25,1.15-.59,1.62-1v-1.46h-3.11v-2.5h5.93v5.06Z"/>
    <path class="cls-1" d="m66.72,95.42h-2.93v-15.13h2.93v15.13Z"/>
    <path class="cls-1" d="m82.15,95.42h-2.88l-6.83-10.62v10.62h-2.88v-15.15h3.29l6.42,9.88v-9.88h2.88v15.15Z"/>
    <path class="cls-1" d="m98.93,92.64c-.43.53-.9.99-1.4,1.37-.51.39-1.03.7-1.58.96-.55.25-1.11.44-1.68.56-.57.12-1.15.18-1.71.18-1.12,0-2.18-.2-3.16-.61-.98-.4-1.84-.96-2.58-1.67-.73-.71-1.31-1.54-1.74-2.5-.43-.96-.64-1.99-.64-3.11s.21-2.1.63-3.06c.42-.95,1-1.78,1.74-2.49.74-.71,1.6-1.26,2.58-1.67.98-.41,2.04-.62,3.16-.62,1.3,0,2.48.27,3.55.8,1.07.53,1.97,1.24,2.72,2.12l-1.99,2.03c-.57-.77-1.2-1.32-1.91-1.66-.71-.33-1.49-.5-2.36-.5-.72,0-1.39.13-2.02.4-.63.27-1.18.63-1.65,1.09-.47.46-.84,1-1.12,1.61-.27.61-.41,1.27-.41,1.96s.14,1.37.41,1.98c.27.61.64,1.15,1.12,1.62.47.47,1.02.83,1.65,1.1.63.27,1.3.4,2.02.4.68,0,1.32-.13,1.93-.38.6-.25,1.15-.59,1.62-1v-1.46h-3.11v-2.5h5.93v5.06Z"/>
    <path class="cls-1" d="m117.78,85.37c0,.72-.14,1.39-.41,2.02-.27.63-.64,1.17-1.11,1.63-.47.46-1.02.82-1.65,1.08-.63.26-1.3.39-2.01.39h-2.51v4.94h-2.93v-15.13h5.44c.71,0,1.38.13,2.01.39.63.26,1.18.62,1.65,1.07.47.46.84.99,1.11,1.61.27.62.41,1.29.41,2.01Zm-2.94-.04c0-.39-.07-.76-.22-1.1-.15-.34-.34-.64-.6-.89-.25-.25-.55-.45-.89-.61-.34-.15-.71-.23-1.1-.23h-1.95v5.72h1.95c.39,0,.76-.08,1.1-.24.34-.16.64-.37.89-.63.25-.27.45-.57.6-.92.15-.35.22-.72.22-1.11Z"/>
    <path class="cls-1" d="m135.14,87.85c0,1.09-.21,2.11-.63,3.07-.42.96-1,1.79-1.73,2.5-.73.71-1.58,1.27-2.55,1.68-.97.41-2,.62-3.1.62s-2.13-.21-3.11-.62c-.98-.41-1.83-.97-2.56-1.68-.73-.71-1.31-1.54-1.73-2.49-.42-.95-.63-1.98-.63-3.08s.21-2.13.63-3.09c.42-.96,1-1.79,1.73-2.5.73-.71,1.59-1.26,2.56-1.67.98-.4,2.01-.61,3.11-.61s2.13.2,3.1.61c.97.4,1.82.96,2.55,1.68.73.71,1.31,1.55,1.73,2.5.42.95.63,1.98.63,3.08Zm-2.93,0c0-.69-.13-1.35-.4-1.96-.27-.61-.63-1.15-1.09-1.61-.46-.46-1-.83-1.62-1.1-.62-.27-1.28-.41-1.97-.41s-1.37.14-1.99.41c-.62.27-1.16.64-1.62,1.1-.46.46-.83,1-1.09,1.61-.27.61-.4,1.27-.4,1.96s.13,1.33.4,1.95c.27.62.63,1.16,1.09,1.62.46.46,1,.83,1.62,1.1.62.27,1.28.41,1.99.41s1.35-.14,1.97-.41c.62-.27,1.16-.64,1.62-1.1.46-.46.83-1,1.09-1.62.27-.62.4-1.27.4-1.95Z"/>
    <path class="cls-1" d="m147.54,91.44c0,.57-.12,1.11-.37,1.62-.25.51-.59.96-1.03,1.35-.44.39-.97.7-1.57.94-.61.23-1.27.35-2.01.35-.66,0-1.25-.04-1.77-.11-.52-.08-1.02-.2-1.48-.36-.46-.16-.9-.38-1.33-.64-.42-.26-.86-.57-1.32-.94l2.08-2.1c.61.5,1.2.86,1.78,1.07.58.21,1.21.31,1.89.31.28,0,.54-.04.79-.12.25-.08.46-.19.64-.33.18-.14.33-.3.44-.49.11-.19.16-.4.16-.63,0-.24-.04-.45-.13-.64-.09-.19-.25-.37-.47-.55-.23-.18-.54-.36-.95-.54-.4-.18-.92-.39-1.55-.62-.56-.2-1.09-.43-1.6-.69-.51-.26-.96-.57-1.34-.94-.39-.37-.69-.8-.93-1.29-.23-.49-.35-1.07-.35-1.74s.13-1.24.39-1.78c.26-.54.61-1.01,1.06-1.39.45-.39.97-.68,1.57-.9.6-.21,1.25-.32,1.94-.32,1.16,0,2.14.15,2.93.46.8.3,1.5.74,2.12,1.32l-2.04,2.06c-.38-.37-.8-.65-1.27-.84-.47-.2-1.02-.29-1.65-.29-.29,0-.56.04-.8.13-.25.09-.46.21-.63.35-.18.15-.32.32-.43.51-.11.2-.16.4-.16.62,0,.24.05.46.15.65.1.2.27.39.51.57.24.18.56.37.96.55.4.18.89.38,1.49.6.76.26,1.41.55,1.95.87.54.32.98.66,1.33,1.04.34.38.59.8.76,1.28.16.47.25,1.01.25,1.6Z"/>
    <path class="cls-1" d="m159.74,91.44c0,.57-.12,1.11-.37,1.62-.25.51-.59.96-1.03,1.35-.44.39-.97.7-1.57.94-.61.23-1.27.35-2.01.35-.66,0-1.25-.04-1.77-.11-.52-.08-1.02-.2-1.48-.36-.46-.16-.9-.38-1.33-.64-.42-.26-.86-.57-1.32-.94l2.08-2.1c.61.5,1.2.86,1.78,1.07.58.21,1.21.31,1.89.31.28,0,.54-.04.79-.12.25-.08.46-.19.64-.33.18-.14.33-.3.44-.49.11-.19.16-.4.16-.63,0-.24-.04-.45-.13-.64-.09-.19-.25-.37-.47-.55-.23-.18-.54-.36-.95-.54-.4-.18-.92-.39-1.55-.62-.56-.2-1.09-.43-1.6-.69-.51-.26-.96-.57-1.34-.94-.39-.37-.69-.8-.93-1.29-.23-.49-.35-1.07-.35-1.74s.13-1.24.39-1.78c.26-.54.61-1.01,1.06-1.39.45-.39.97-.68,1.57-.9.6-.21,1.25-.32,1.94-.32,1.16,0,2.14.15,2.93.46.8.3,1.5.74,2.12,1.32l-2.04,2.06c-.38-.37-.8-.65-1.27-.84-.47-.2-1.02-.29-1.65-.29-.29,0-.56.04-.8.13-.25.09-.46.21-.63.35-.18.15-.32.32-.43.51-.11.2-.16.4-.16.62,0,.24.05.46.15.65.1.2.27.39.51.57.24.18.56.37.96.55.4.18.89.38,1.49.6.76.26,1.41.55,1.95.87.54.32.98.66,1.33,1.04.34.38.59.8.76,1.28.16.47.25,1.01.25,1.6Z"/>
    <path class="cls-1" d="m164.76,95.42h-2.93v-15.13h2.93v15.13Z"/>
    <path class="cls-1" d="m178.39,91.08c0,.63-.13,1.22-.39,1.75-.26.54-.6,1-1.03,1.38-.43.38-.93.68-1.49.9-.56.21-1.15.32-1.77.32l-6.12-.02v-15.15h5.45c.66,0,1.26.1,1.83.29.56.2,1.05.48,1.47.85s.74.83.97,1.36c.23.54.35,1.14.35,1.81,0,.57-.13,1.12-.38,1.65-.25.53-.59.98-1,1.34.33.16.62.37.88.63.26.25.48.53.66.84.18.31.32.64.42.98.1.35.14.7.14,1.05Zm-3.62-6.44c0-.37-.07-.68-.21-.95-.14-.27-.33-.49-.56-.66-.23-.18-.5-.31-.81-.4-.3-.09-.62-.13-.95-.13h-1.72v4.17c.32.01.6.02.85.02h.87c.33,0,.64-.04.95-.11.3-.08.57-.2.81-.36.23-.16.42-.38.56-.63.14-.26.21-.57.21-.94Zm.57,6.27c0-.32-.06-.61-.18-.87-.12-.27-.28-.49-.49-.67-.21-.18-.45-.32-.72-.43-.27-.1-.57-.15-.88-.15-.43-.01-.85-.02-1.27,0-.42,0-.84,0-1.27,0v4.18h2.2c.32,0,.63-.04.95-.11.31-.08.6-.2.84-.37.25-.17.45-.38.6-.64.15-.26.23-.57.23-.94Z"/>
    <path class="cls-1" d="m183.4,95.42h-2.94v-15.13h2.94v15.13Z"/>
    <path class="cls-1" d="m196.49,95.42h-10.24v-15.13h2.99v12.29h7.25v2.84Z"/>
    <path class="cls-1" d="m201.13,95.42h-2.94v-15.13h2.94v15.13Z"/>
    <path class="cls-1" d="m214.36,82.91h-4.18v12.51h-2.97v-12.51h-4.18v-2.61h11.34v2.61Z"/>
    <path class="cls-1" d="m219.19,95.42h-2.94v-15.13h2.94v15.13Z"/>
    <path class="cls-1" d="m232.02,95.42h-10v-15.13h10v2.42h-7.12v3.62h7.02v2.37h-7.02v4.16h7.12v2.56Z"/>
    <path class="cls-1" d="m244.41,91.44c0,.57-.12,1.11-.37,1.62-.25.51-.59.96-1.03,1.35-.44.39-.97.7-1.57.94-.61.23-1.28.35-2.01.35-.66,0-1.25-.04-1.77-.11-.52-.08-1.02-.2-1.48-.36-.46-.16-.9-.38-1.32-.64-.42-.26-.86-.57-1.32-.94l2.08-2.1c.61.5,1.2.86,1.78,1.07.58.21,1.21.31,1.89.31.28,0,.54-.04.79-.12.25-.08.46-.19.64-.33.18-.14.33-.3.44-.49.11-.19.16-.4.16-.63,0-.24-.04-.45-.13-.64-.09-.19-.25-.37-.47-.55-.23-.18-.54-.36-.95-.54-.4-.18-.92-.39-1.55-.62-.56-.2-1.09-.43-1.6-.69-.51-.26-.96-.57-1.34-.94-.39-.37-.69-.8-.93-1.29-.23-.49-.35-1.07-.35-1.74s.13-1.24.39-1.78c.26-.54.61-1.01,1.06-1.39.45-.39.97-.68,1.57-.9.6-.21,1.25-.32,1.94-.32,1.16,0,2.14.15,2.94.46.8.3,1.5.74,2.12,1.32l-2.04,2.06c-.38-.37-.8-.65-1.27-.84s-1.02-.29-1.65-.29c-.29,0-.56.04-.8.13-.25.09-.46.21-.63.35-.18.15-.32.32-.43.51-.11.2-.16.4-.16.62,0,.24.05.46.15.65.1.2.27.39.51.57.24.18.56.37.96.55.4.18.89.38,1.49.6.76.26,1.41.55,1.95.87.54.32.99.66,1.33,1.04.34.38.59.8.76,1.28.16.47.25,1.01.25,1.6Z"/>
    <path class="cls-1" d="m255.39,95.42h-2.94v-15.13h2.94v15.13Z"/>
    <path class="cls-1" d="m270.82,95.42h-2.88l-6.84-10.62v10.62h-2.88v-15.15h3.29l6.42,9.88v-9.88h2.88v15.15Z"/>
    <path class="cls-1" d="m294.73,95.42h-2.88v-10.11l-4.77,8.05-4.58-8.12v10.19h-2.88v-15.15h3.31l4.2,7.52,4.39-7.52h3.2v15.15Z"/>
    <path class="cls-1" d="m310.84,80.27v8.22c0,1.01-.15,1.95-.46,2.82-.3.87-.74,1.63-1.32,2.28-.57.65-1.27,1.16-2.1,1.53-.83.37-1.77.56-2.83.56s-1.97-.18-2.8-.55c-.83-.37-1.54-.87-2.13-1.51-.59-.64-1.04-1.39-1.35-2.25-.32-.86-.47-1.8-.47-2.79v-8.31h2.93v8.33c0,.58.08,1.13.25,1.64.16.51.4.96.72,1.34.32.38.71.68,1.18.9.47.22,1.01.33,1.62.33.64,0,1.2-.1,1.68-.31.47-.21.86-.5,1.17-.87.31-.37.54-.81.7-1.32.16-.5.24-1.06.24-1.67v-8.37h2.97Z"/>
    <path class="cls-1" d="m323.41,91.44c0,.57-.12,1.11-.37,1.62-.25.51-.59.96-1.03,1.35-.44.39-.97.7-1.57.94-.61.23-1.28.35-2.01.35-.66,0-1.25-.04-1.77-.11-.52-.08-1.02-.2-1.48-.36-.46-.16-.9-.38-1.32-.64-.42-.26-.86-.57-1.32-.94l2.08-2.1c.61.5,1.2.86,1.78,1.07.58.21,1.21.31,1.89.31.28,0,.54-.04.79-.12.25-.08.46-.19.64-.33.18-.14.33-.3.44-.49.11-.19.16-.4.16-.63,0-.24-.04-.45-.13-.64-.09-.19-.25-.37-.47-.55-.23-.18-.54-.36-.95-.54-.4-.18-.92-.39-1.55-.62-.56-.2-1.09-.43-1.6-.69-.51-.26-.96-.57-1.34-.94-.39-.37-.69-.8-.93-1.29-.23-.49-.35-1.07-.35-1.74s.13-1.24.39-1.78c.26-.54.61-1.01,1.06-1.39.45-.39.97-.68,1.57-.9.6-.21,1.25-.32,1.94-.32,1.16,0,2.14.15,2.94.46.8.3,1.5.74,2.12,1.32l-2.04,2.06c-.38-.37-.8-.65-1.27-.84-.47-.2-1.02-.29-1.65-.29-.29,0-.56.04-.8.13-.25.09-.46.21-.63.35-.18.15-.32.32-.43.51-.11.2-.16.4-.16.62,0,.24.05.46.15.65.1.2.27.39.51.57.24.18.56.37.96.55.4.18.89.38,1.49.6.76.26,1.41.55,1.95.87.54.32.99.66,1.33,1.04.34.38.59.8.76,1.28.16.47.25,1.01.25,1.6Z"/>
    <path class="cls-1" d="m328.43,95.42h-2.94v-15.13h2.94v15.13Z"/>
    <path class="cls-1" d="m345.11,92.69c-.76.92-1.68,1.65-2.76,2.2-1.08.54-2.27.81-3.57.81-1.12,0-2.18-.21-3.16-.62-.98-.41-1.84-.97-2.57-1.68-.73-.71-1.3-1.54-1.72-2.49-.42-.95-.63-1.98-.63-3.08s.21-2.12.63-3.08c.42-.95,1-1.79,1.72-2.5.73-.71,1.59-1.27,2.57-1.68.98-.4,2.04-.61,3.16-.61,1.3,0,2.49.27,3.57.81,1.08.54,1.98,1.25,2.7,2.12l-2.03,2.08c-.47-.67-1.07-1.21-1.81-1.62-.74-.41-1.55-.62-2.43-.62-.71,0-1.37.14-2,.41-.62.27-1.17.64-1.64,1.1-.47.46-.84,1-1.11,1.61-.27.61-.41,1.27-.41,1.96s.13,1.33.41,1.94c.27.61.64,1.15,1.11,1.61.47.46,1.01.83,1.64,1.1.63.27,1.29.41,2,.41.93,0,1.76-.21,2.48-.63.72-.42,1.32-.98,1.8-1.68l2.04,2.1Z"/>
  </g>
</svg>