<?xml version="1.0" encoding="UTF-8"?>
<svg id="Layer_1" data-name="Layer 1" xmlns="http://www.w3.org/2000/svg" viewBox="0 0 243.96 62.31">
  <defs>
    <style>
      .cls-1 {
        stroke-width: 0px;
      }
    </style>
  </defs>
  <path class="cls-1" d="m40.54,42.4c0,8.68-6.23,17.83-18.34,17.83H0V1.46h16.04c10.43,0,17.06,7.66,17.06,15.57,0,6.23-4.12,10.1-5.54,10.1,5.65,0,12.98,5.83,12.98,15.27ZM11.78,12.94v11.48h4.78c2.81,0,5.54-2.41,5.54-5.83s-2.59-5.65-5.32-5.65h-4.99Zm17.24,28.62c0-3.39-2.33-6.78-7.95-6.78h-9.3v13.93h9.33c3.83,0,7.91-2.62,7.91-7.14Z"/>
  <path class="cls-1" d="m51.87,54.57c0-4.12,3.43-7.55,7.55-7.55s7.55,3.46,7.55,7.55-3.43,7.51-7.55,7.51-7.55-3.35-7.55-7.51Z"/>
  <path class="cls-1" d="m81.86,1.46h20.63c11.37,0,20.67,8.93,20.67,19.87s-9.3,19.8-20.67,19.8h-8.82v19.1h-11.81V1.46Zm29.49,19.76c0-4.45-3.97-8.06-8.86-8.06h-8.82v16.26l8.82.04c4.89.04,8.86-3.68,8.86-8.24Z"/>
  <path class="cls-1" d="m126.4,54.57c0-4.12,3.43-7.55,7.55-7.55s7.55,3.46,7.55,7.55-3.43,7.51-7.55,7.51-7.55-3.35-7.55-7.51Z"/>
  <path class="cls-1" d="m213.96,0v60.23h-11.81v-25.59l-16.92,24.61h-.07l-16.95-24.61v25.59h-11.81V0h.66l28.14,38.83L213.31,0h.66Z"/>
  <path class="cls-1" d="m228.86,54.57c0-4.12,3.43-7.55,7.55-7.55s7.55,3.46,7.55,7.55-3.43,7.51-7.55,7.51-7.55-3.35-7.55-7.51Z"/>
</svg>