<?xml version="1.0" encoding="UTF-8"?>
<svg id="Layer_1" data-name="Layer 1" xmlns="http://www.w3.org/2000/svg" viewBox="0 0 287.43 89.37">
  <defs>
    <style>
      .cls-1, .cls-2 {
        stroke-width: 0px;
      }

      .cls-2 {
        fill: #33b433;
      }
    </style>
  </defs>
  <g>
    <path class="cls-1" d="m62.28,42.4c0,8.68-6.23,17.83-18.34,17.83h-22.2V1.46h16.04c10.43,0,17.06,7.66,17.06,15.57,0,6.23-4.12,10.1-5.54,10.1,5.65,0,12.98,5.83,12.98,15.27Zm-28.76-29.46v11.48h4.78c2.81,0,5.54-2.41,5.54-5.83s-2.59-5.65-5.32-5.65h-4.99Zm17.24,28.62c0-3.39-2.33-6.78-7.95-6.78h-9.3v13.93h9.33c3.83,0,7.91-2.62,7.91-7.14Z"/>
    <path class="cls-1" d="m73.61,54.57c0-4.12,3.43-7.55,7.55-7.55s7.55,3.46,7.55,7.55-3.43,7.51-7.55,7.51-7.55-3.35-7.55-7.51Z"/>
    <path class="cls-1" d="m103.6,1.46h20.63c11.37,0,20.67,8.93,20.67,19.87s-9.3,19.8-20.67,19.8h-8.82v19.1h-11.81V1.46Zm29.49,19.76c0-4.45-3.97-8.06-8.86-8.06h-8.82v16.26l8.82.04c4.89.04,8.86-3.68,8.86-8.24Z"/>
    <path class="cls-1" d="m148.14,54.57c0-4.12,3.43-7.55,7.55-7.55s7.55,3.46,7.55,7.55-3.43,7.51-7.55,7.51-7.55-3.35-7.55-7.51Z"/>
    <path class="cls-1" d="m235.7,0v60.23h-11.81v-25.59l-16.92,24.61h-.07l-16.95-24.61v25.59h-11.81V0h.66l28.14,38.83L235.04,0h.66Z"/>
    <path class="cls-1" d="m250.6,54.57c0-4.12,3.43-7.55,7.55-7.55s7.55,3.46,7.55,7.55-3.43,7.51-7.55,7.51-7.55-3.35-7.55-7.51Z"/>
  </g>
  <g>
    <path class="cls-2" d="m8.99,85.53c0,.53-.11,1.01-.32,1.46-.22.45-.5.83-.86,1.15-.36.32-.77.57-1.24.75s-.96.27-1.47.27l-5.09-.02v-12.61h4.54c.55,0,1.05.08,1.52.24.47.16.88.4,1.22.71.35.31.62.69.81,1.14.19.45.29.95.29,1.51,0,.47-.1.93-.32,1.37-.21.44-.49.82-.84,1.12.27.14.52.31.73.52.22.21.4.44.55.7.15.26.27.53.35.82.08.29.12.58.12.87Zm-3.01-5.36c0-.31-.06-.57-.17-.79-.12-.22-.27-.4-.47-.55-.2-.15-.42-.26-.67-.33-.25-.07-.52-.11-.79-.11h-1.44v3.47c.26.01.5.02.71.02h.73c.27,0,.54-.03.79-.09.25-.06.48-.16.67-.3.19-.14.35-.31.47-.53.12-.22.17-.48.17-.78Zm.47,5.22c0-.26-.05-.51-.15-.73-.1-.22-.24-.41-.41-.56-.17-.15-.37-.27-.6-.36-.23-.08-.47-.13-.73-.13-.36-.01-.71-.01-1.06,0-.35,0-.7,0-1.06,0v3.49h1.83c.26,0,.53-.03.79-.09.26-.06.5-.17.7-.31.21-.14.37-.32.5-.54.13-.22.19-.48.19-.78Z"/>
    <path class="cls-2" d="m20.2,89.14h-2.69l-.9-2.87c-.09-.32-.21-.6-.35-.87-.14-.26-.31-.49-.51-.68-.2-.19-.44-.34-.72-.44-.28-.1-.61-.16-.98-.16h-.91v5.01h-2.41v-12.6l4.97-.02c.53,0,1.03.09,1.5.28.46.18.86.44,1.2.76.34.33.6.71.79,1.15.19.44.28.92.28,1.44,0,.37-.06.72-.17,1.07-.12.35-.28.67-.49.96-.21.29-.46.55-.74.78-.29.23-.6.4-.95.51.4.15.72.36.97.64.25.28.45.61.6,1,.07.18.14.36.2.54.06.18.13.37.2.56.07.19.14.4.22.63.08.23.16.48.26.75.12.35.22.64.32.89.1.25.21.46.32.65Zm-3.19-8.81c0-.29-.06-.56-.17-.8-.11-.24-.26-.45-.45-.63-.19-.18-.41-.32-.67-.42-.26-.1-.53-.15-.83-.15h-1.77v3.93h1.77c.29,0,.57-.04.83-.13.26-.09.48-.22.67-.39.19-.17.34-.37.45-.61.11-.24.17-.5.17-.8Z"/>
    <path class="cls-2" d="m24.16,89.14h-2.44v-12.6h2.44v12.6Z"/>
    <path class="cls-2" d="m37.73,82.83c0,.87-.15,1.69-.44,2.45-.29.76-.7,1.43-1.23,2-.53.57-1.15,1.02-1.88,1.36-.73.33-1.53.5-2.39.5h-5.27v-12.61h5.27c.86,0,1.66.17,2.39.5.73.34,1.36.79,1.88,1.36.53.57.94,1.24,1.23,2,.29.77.44,1.58.44,2.44Zm-2.48-.06c.01-.59-.08-1.15-.27-1.67-.19-.53-.46-.99-.82-1.38-.36-.39-.8-.7-1.32-.93-.52-.23-1.11-.34-1.76-.34h-2.13v8.61h2.13c.64,0,1.22-.11,1.73-.32.51-.22.94-.51,1.3-.9.36-.38.63-.84.83-1.36.19-.52.3-1.09.31-1.71Z"/>
    <path class="cls-2" d="m51.23,86.82c-.36.44-.75.82-1.17,1.14-.42.32-.86.59-1.32.8-.46.21-.93.37-1.4.46-.48.1-.95.15-1.43.15-.94,0-1.81-.17-2.63-.5-.82-.34-1.54-.8-2.14-1.39-.61-.59-1.09-1.28-1.45-2.08-.36-.8-.54-1.66-.54-2.59s.18-1.75.53-2.55c.35-.79.84-1.48,1.45-2.07.62-.59,1.33-1.05,2.15-1.39.82-.34,1.7-.51,2.63-.51,1.08,0,2.07.22,2.96.66.89.44,1.64,1.03,2.26,1.77l-1.65,1.69c-.47-.64-1-1.1-1.59-1.38-.59-.28-1.24-.42-1.97-.42-.6,0-1.16.11-1.68.33-.52.22-.98.52-1.38.91-.39.38-.7.83-.93,1.34-.23.51-.34,1.05-.34,1.63s.11,1.14.34,1.65c.23.51.53.96.93,1.35.39.39.85.69,1.38.91.52.22,1.09.33,1.68.33.57,0,1.1-.1,1.61-.32.5-.21.95-.49,1.35-.84v-1.21h-2.59v-2.08h4.94v4.21Z"/>
    <path class="cls-2" d="m55.57,89.14h-2.44v-12.6h2.44v12.6Z"/>
    <path class="cls-2" d="m68.42,89.14h-2.4l-5.69-8.85v8.85h-2.4v-12.61h2.74l5.35,8.23v-8.23h2.4v12.61Z"/>
    <path class="cls-2" d="m82.39,86.82c-.36.44-.75.82-1.17,1.14-.42.32-.86.59-1.32.8-.46.21-.93.37-1.4.46-.48.1-.95.15-1.43.15-.94,0-1.81-.17-2.63-.5-.82-.34-1.54-.8-2.14-1.39-.61-.59-1.09-1.28-1.45-2.08-.36-.8-.54-1.66-.54-2.59s.18-1.75.53-2.55c.35-.79.84-1.48,1.45-2.07.62-.59,1.33-1.05,2.15-1.39.82-.34,1.7-.51,2.63-.51,1.08,0,2.07.22,2.96.66.89.44,1.64,1.03,2.26,1.77l-1.65,1.69c-.47-.64-1-1.1-1.59-1.38-.59-.28-1.24-.42-1.97-.42-.6,0-1.16.11-1.68.33-.52.22-.98.52-1.38.91-.39.38-.7.83-.93,1.34-.23.51-.34,1.05-.34,1.63s.11,1.14.34,1.65c.23.51.53.96.93,1.35.39.39.85.69,1.38.91.52.22,1.09.33,1.68.33.57,0,1.1-.1,1.61-.32.5-.21.95-.49,1.35-.84v-1.21h-2.59v-2.08h4.94v4.21Z"/>
    <path class="cls-2" d="m98.1,80.77c0,.6-.11,1.16-.34,1.68-.23.52-.53.97-.92,1.36-.39.38-.85.68-1.38.9-.53.22-1.09.32-1.68.32h-2.09v4.12h-2.44v-12.6h4.53c.59,0,1.15.11,1.67.32.53.22.98.51,1.37.89.39.38.7.83.92,1.34.23.52.34,1.07.34,1.67Zm-2.44-.03c0-.33-.06-.63-.18-.91-.12-.28-.29-.53-.5-.74-.21-.21-.46-.38-.74-.5-.28-.13-.59-.19-.91-.19h-1.62v4.76h1.62c.33,0,.63-.07.91-.2.28-.13.53-.31.74-.53.21-.22.38-.48.5-.77.12-.29.18-.6.18-.92Z"/>
    <path class="cls-2" d="m112.56,82.83c0,.9-.18,1.76-.53,2.56-.35.8-.83,1.49-1.44,2.08-.61.59-1.32,1.05-2.13,1.4-.81.34-1.67.51-2.58.51s-1.78-.17-2.59-.51c-.81-.34-1.53-.81-2.13-1.4-.61-.59-1.09-1.28-1.44-2.07-.35-.79-.53-1.65-.53-2.56s.18-1.77.53-2.57c.35-.8.83-1.49,1.44-2.08.61-.59,1.32-1.05,2.13-1.39.81-.34,1.68-.51,2.59-.51s1.77.17,2.58.51c.81.34,1.52.8,2.13,1.4.61.59,1.09,1.29,1.44,2.08.35.79.53,1.65.53,2.56Zm-2.44,0c0-.58-.11-1.12-.33-1.63-.22-.51-.52-.96-.91-1.34-.38-.38-.83-.69-1.35-.92-.52-.23-1.06-.34-1.64-.34s-1.14.11-1.66.34c-.52.23-.97.53-1.35.92-.38.38-.69.83-.91,1.34-.22.51-.33,1.05-.33,1.63s.11,1.11.33,1.62c.22.52.52.96.91,1.35.38.38.83.69,1.35.91.52.23,1.07.34,1.66.34s1.13-.11,1.64-.34c.52-.23.97-.53,1.35-.91.38-.38.69-.83.91-1.35.22-.52.33-1.06.33-1.62Z"/>
    <path class="cls-2" d="m122.89,85.83c0,.47-.1.92-.31,1.35-.21.43-.49.8-.86,1.13-.37.33-.8.59-1.31.78-.5.19-1.06.29-1.67.29-.55,0-1.04-.03-1.47-.09-.44-.06-.85-.16-1.23-.3-.38-.14-.75-.31-1.1-.53-.35-.22-.72-.47-1.1-.78l1.73-1.75c.5.42,1,.72,1.48.89.48.17,1.01.26,1.58.26.23,0,.45-.03.65-.1.21-.07.38-.16.54-.28.15-.12.27-.25.36-.41.09-.16.13-.33.13-.52,0-.2-.04-.38-.11-.54-.07-.16-.21-.31-.39-.46-.19-.15-.45-.3-.79-.45-.34-.15-.77-.32-1.29-.51-.46-.17-.91-.36-1.33-.58-.43-.22-.8-.48-1.12-.78-.32-.3-.58-.66-.77-1.07-.19-.41-.29-.89-.29-1.45s.11-1.03.32-1.48c.22-.45.51-.84.88-1.16.37-.32.81-.57,1.31-.75.5-.18,1.04-.27,1.62-.27.97,0,1.78.13,2.44.38.66.25,1.25.62,1.77,1.1l-1.7,1.72c-.32-.31-.67-.54-1.06-.7-.39-.16-.85-.24-1.37-.24-.24,0-.47.04-.67.11-.2.07-.38.17-.53.29-.15.12-.27.26-.35.43-.09.16-.13.33-.13.51,0,.2.04.38.13.54.08.16.23.32.43.47.2.15.47.3.8.46.33.15.74.32,1.24.5.63.22,1.17.46,1.62.72.45.26.82.55,1.1.87.28.31.49.67.63,1.06.14.39.21.84.21,1.33Z"/>
    <path class="cls-2" d="m133.04,85.83c0,.47-.1.92-.31,1.35-.21.43-.49.8-.86,1.13-.37.33-.8.59-1.31.78-.5.19-1.06.29-1.67.29-.55,0-1.04-.03-1.47-.09-.44-.06-.85-.16-1.23-.3-.38-.14-.75-.31-1.1-.53-.35-.22-.72-.47-1.1-.78l1.73-1.75c.5.42,1,.72,1.48.89.48.17,1.01.26,1.58.26.23,0,.45-.03.65-.1.21-.07.38-.16.54-.28.15-.12.27-.25.36-.41.09-.16.13-.33.13-.52,0-.2-.04-.38-.11-.54-.07-.16-.21-.31-.39-.46-.19-.15-.45-.3-.79-.45-.34-.15-.77-.32-1.29-.51-.46-.17-.91-.36-1.33-.58-.43-.22-.8-.48-1.12-.78-.32-.3-.58-.66-.77-1.07-.19-.41-.29-.89-.29-1.45s.11-1.03.32-1.48c.22-.45.51-.84.88-1.16.37-.32.81-.57,1.31-.75.5-.18,1.04-.27,1.62-.27.97,0,1.78.13,2.44.38.66.25,1.25.62,1.77,1.1l-1.7,1.72c-.32-.31-.67-.54-1.06-.7-.39-.16-.85-.24-1.37-.24-.24,0-.47.04-.67.11-.2.07-.38.17-.53.29-.15.12-.27.26-.35.43-.09.16-.13.33-.13.51,0,.2.04.38.13.54.08.16.23.32.43.47.2.15.47.3.8.46.33.15.74.32,1.24.5.63.22,1.17.46,1.62.72.45.26.82.55,1.1.87.28.31.49.67.63,1.06.14.39.21.84.21,1.33Z"/>
    <path class="cls-2" d="m137.22,89.14h-2.44v-12.6h2.44v12.6Z"/>
    <path class="cls-2" d="m148.57,85.53c0,.53-.11,1.01-.32,1.46-.22.45-.5.83-.86,1.15-.36.32-.77.57-1.24.75-.47.18-.96.27-1.47.27l-5.09-.02v-12.61h4.54c.55,0,1.05.08,1.52.24.47.16.87.4,1.22.71s.62.69.81,1.14c.2.45.29.95.29,1.51,0,.47-.1.93-.32,1.37-.21.44-.49.82-.84,1.12.27.14.52.31.73.52.22.21.4.44.55.7.15.26.27.53.35.82.08.29.12.58.12.87Zm-3.01-5.36c0-.31-.06-.57-.17-.79-.12-.22-.27-.4-.46-.55-.2-.15-.42-.26-.67-.33-.25-.07-.52-.11-.79-.11h-1.44v3.47c.26.01.5.02.71.02h.73c.27,0,.54-.03.79-.09.25-.06.48-.16.67-.3.19-.14.35-.31.46-.53.12-.22.17-.48.17-.78Zm.47,5.22c0-.26-.05-.51-.15-.73-.1-.22-.24-.41-.41-.56-.17-.15-.37-.27-.6-.36-.23-.08-.47-.13-.73-.13-.36-.01-.71-.01-1.06,0-.35,0-.7,0-1.06,0v3.49h1.83c.26,0,.53-.03.79-.09.26-.06.5-.17.7-.31.21-.14.37-.32.5-.54.13-.22.19-.48.19-.78Z"/>
    <path class="cls-2" d="m152.75,89.14h-2.44v-12.6h2.44v12.6Z"/>
    <path class="cls-2" d="m163.65,89.14h-8.53v-12.6h2.49v10.23h6.04v2.37Z"/>
    <path class="cls-2" d="m167.51,89.14h-2.44v-12.6h2.44v12.6Z"/>
    <path class="cls-2" d="m178.53,78.72h-3.49v10.42h-2.48v-10.42h-3.49v-2.18h9.45v2.18Z"/>
    <path class="cls-2" d="m182.55,89.14h-2.44v-12.6h2.44v12.6Z"/>
    <path class="cls-2" d="m193.25,89.14h-8.33v-12.6h8.33v2.02h-5.93v3.01h5.85v1.97h-5.85v3.47h5.93v2.13Z"/>
    <path class="cls-2" d="m203.56,85.83c0,.47-.1.92-.31,1.35-.21.43-.49.8-.86,1.13-.37.33-.8.59-1.31.78-.51.19-1.06.29-1.67.29-.55,0-1.04-.03-1.47-.09-.44-.06-.85-.16-1.23-.3-.38-.14-.75-.31-1.1-.53-.35-.22-.72-.47-1.1-.78l1.73-1.75c.5.42,1,.72,1.48.89.48.17,1.01.26,1.58.26.23,0,.45-.03.65-.1.21-.07.38-.16.54-.28.15-.12.27-.25.36-.41.09-.16.13-.33.13-.52,0-.2-.04-.38-.11-.54-.07-.16-.21-.31-.39-.46-.19-.15-.45-.3-.79-.45-.34-.15-.77-.32-1.29-.51-.46-.17-.91-.36-1.33-.58-.43-.22-.8-.48-1.12-.78-.32-.3-.58-.66-.77-1.07-.2-.41-.29-.89-.29-1.45s.11-1.03.32-1.48c.22-.45.51-.84.88-1.16.37-.32.81-.57,1.31-.75.5-.18,1.04-.27,1.62-.27.97,0,1.78.13,2.44.38.66.25,1.25.62,1.77,1.1l-1.7,1.72c-.32-.31-.67-.54-1.06-.7s-.85-.24-1.37-.24c-.24,0-.47.04-.67.11-.21.07-.38.17-.53.29-.15.12-.27.26-.36.43-.09.16-.13.33-.13.51,0,.2.04.38.13.54.08.16.23.32.43.47.2.15.47.3.8.46.33.15.74.32,1.24.5.63.22,1.17.46,1.62.72.45.26.82.55,1.1.87.28.31.49.67.63,1.06.14.39.21.84.21,1.33Z"/>
    <path class="cls-2" d="m212.7,89.14h-2.44v-12.6h2.44v12.6Z"/>
    <path class="cls-2" d="m225.56,89.14h-2.4l-5.69-8.85v8.85h-2.4v-12.61h2.74l5.35,8.23v-8.23h2.4v12.61Z"/>
    <path class="cls-2" d="m245.47,89.14h-2.4v-8.42l-3.97,6.7-3.82-6.77v8.48h-2.4v-12.61h2.76l3.5,6.26,3.66-6.26h2.66v12.61Z"/>
    <path class="cls-2" d="m258.89,76.52v6.84c0,.84-.13,1.62-.38,2.35-.25.72-.62,1.36-1.1,1.9-.48.54-1.06.97-1.75,1.28-.69.31-1.47.47-2.36.47s-1.64-.15-2.33-.46c-.69-.3-1.29-.72-1.77-1.25-.49-.53-.86-1.16-1.13-1.88-.26-.72-.39-1.5-.39-2.33v-6.92h2.44v6.94c0,.48.07.94.21,1.36.14.43.34.8.6,1.11.26.32.59.56.99.75.39.18.84.28,1.35.28.54,0,1-.09,1.4-.26.39-.17.72-.41.98-.73.26-.31.45-.68.58-1.1.13-.42.2-.88.2-1.39v-6.97h2.48Z"/>
    <path class="cls-2" d="m269.36,85.83c0,.47-.1.92-.31,1.35-.21.43-.49.8-.86,1.13-.37.33-.8.59-1.31.78-.51.19-1.06.29-1.67.29-.55,0-1.04-.03-1.47-.09-.44-.06-.85-.16-1.23-.3-.38-.14-.75-.31-1.1-.53-.35-.22-.72-.47-1.1-.78l1.73-1.75c.5.42,1,.72,1.48.89.48.17,1.01.26,1.58.26.23,0,.45-.03.65-.1.21-.07.38-.16.54-.28.15-.12.27-.25.36-.41.09-.16.13-.33.13-.52,0-.2-.04-.38-.11-.54-.07-.16-.21-.31-.39-.46-.19-.15-.45-.3-.79-.45-.34-.15-.77-.32-1.29-.51-.46-.17-.91-.36-1.33-.58-.43-.22-.8-.48-1.12-.78-.32-.3-.58-.66-.77-1.07-.2-.41-.29-.89-.29-1.45s.11-1.03.32-1.48c.22-.45.51-.84.88-1.16.37-.32.81-.57,1.31-.75.5-.18,1.04-.27,1.62-.27.97,0,1.78.13,2.44.38.66.25,1.25.62,1.77,1.1l-1.7,1.72c-.32-.31-.67-.54-1.06-.7-.39-.16-.85-.24-1.37-.24-.24,0-.47.04-.67.11-.21.07-.38.17-.53.29-.15.12-.27.26-.36.43-.09.16-.13.33-.13.51,0,.2.04.38.13.54.08.16.23.32.43.47.2.15.47.3.8.46.33.15.74.32,1.24.5.63.22,1.17.46,1.62.72.45.26.82.55,1.1.87.28.31.49.67.63,1.06.14.39.21.84.21,1.33Z"/>
    <path class="cls-2" d="m273.54,89.14h-2.44v-12.6h2.44v12.6Z"/>
    <path class="cls-2" d="m287.43,86.87c-.63.77-1.4,1.38-2.29,1.83-.9.45-1.89.68-2.97.68-.94,0-1.81-.17-2.63-.51-.82-.34-1.53-.81-2.14-1.4-.61-.59-1.08-1.28-1.44-2.07-.35-.79-.52-1.65-.52-2.56s.17-1.77.52-2.56c.35-.79.83-1.49,1.44-2.08.61-.59,1.32-1.06,2.14-1.4.82-.34,1.7-.51,2.63-.51,1.08,0,2.07.23,2.97.68.9.45,1.65,1.04,2.25,1.77l-1.69,1.73c-.39-.56-.89-1.01-1.51-1.35-.62-.34-1.29-.51-2.03-.51-.59,0-1.14.11-1.66.34-.52.23-.98.53-1.36.92-.39.38-.7.83-.92,1.34-.23.51-.34,1.05-.34,1.63s.11,1.11.34,1.62c.23.51.53.96.92,1.34.39.38.84.69,1.36.91.52.23,1.07.34,1.66.34.78,0,1.47-.18,2.07-.53.6-.35,1.1-.82,1.5-1.4l1.7,1.75Z"/>
  </g>
</svg>