<?xml version="1.0" encoding="UTF-8"?>
<svg id="Layer_2" data-name="Layer 2" xmlns="http://www.w3.org/2000/svg" viewBox="0 0 351.141 314.712">
  <defs>
    <style>
      .cls-1, .cls-2 {
        fill: none;
      }

      .cls-2 {
        stroke: #54b14d;
        stroke-miterlimit: 10;
        stroke-width: 13px;
      }

      .cls-3 {
        fill: #54b14d;
      }
    </style>
  </defs>
  <g>
    <circle class="cls-1" cx="175.571" cy="157.356" r="93.819"/>
    <path class="cls-3" d="M112.907,87.428l-4.468,4.281-9.12-9.52-3.266,3.13-3.616-3.774,11.003-10.539,3.615,3.773-3.267,3.129,9.118,9.52Z"/>
    <path class="cls-3" d="M122.575,71.538l-4.226,2.753,3.818,5.86-5.185,3.378-10.048-15.424,5.163-3.363,3.406,5.228,4.226-2.753-3.406-5.229,5.208-3.391,10.048,15.423-5.185,3.378-3.818-5.86Z"/>
    <path class="cls-3" d="M127.008,55.987l11.703-4.834,1.967,4.758-6.321,2.61.606,1.466,5.937-2.451,1.835,4.445-5.936,2.452.655,1.586,6.729-2.779,1.966,4.758-12.112,5.003-7.028-17.014Z"/>
    <path class="cls-3" d="M164.334,54.464c.444.035.89.137,1.337.303s.86.4,1.241.701c.38.3.701.666.962,1.099.26.433.436.932.524,1.498.155.993.084,1.859-.212,2.599s-.741,1.37-1.335,1.894c-.593.523-1.3.94-2.12,1.252-.819.313-1.674.539-2.564.678l-8.247,1.29-2.847-18.186,7.474-1.171c.737-.115,1.528-.182,2.377-.201s1.649.083,2.403.308c.754.224,1.414.621,1.977,1.19.563.57.926,1.377,1.089,2.422.153.976.035,1.819-.353,2.529-.389.71-.962,1.282-1.719,1.716l.013.078ZM157.519,51.452l.35,2.234,1.644-.257c.428-.067.765-.22,1.007-.46.244-.24.333-.565.268-.977-.053-.342-.239-.576-.557-.702-.317-.125-.716-.151-1.195-.076l-1.517.237ZM158.485,57.617l.386,2.465,1.823-.286c.48-.074.853-.242,1.119-.504.266-.261.367-.597.302-1.008-.037-.239-.132-.426-.285-.561-.152-.134-.331-.233-.534-.298-.202-.064-.413-.097-.633-.098-.22,0-.424.014-.612.043l-1.566.246Z"/>
    <path class="cls-3" d="M171.575,44.929l7.927.247c.901.028,1.795.147,2.682.356.887.21,1.674.556,2.361,1.036.687.481,1.234,1.114,1.645,1.898.408.784.595,1.757.56,2.917-.036,1.126-.343,2.11-.923,2.95-.579.841-1.395,1.479-2.446,1.914l4.437,7.604-7.104-.221-3.319-6.684-.182-.006-.205,6.574-6.003-.187.572-18.399ZM177.285,52.885l1.212.038c.207.007.434-.003.686-.03.25-.026.484-.093.702-.199.22-.105.404-.256.556-.451.153-.194.234-.456.245-.786.01-.328-.042-.59-.156-.785-.114-.194-.266-.342-.451-.443-.187-.101-.39-.168-.613-.201-.223-.033-.428-.053-.617-.058l-1.47-.046-.093,2.962Z"/>
    <path class="cls-3" d="M192.094,46.282l6.143,1.09-3.215,18.125-6.144-1.09,3.216-18.125Z"/>
    <path class="cls-3" d="M197.79,65.783l5.963-17.416,6.493,2.223c1.379.472,2.648,1.058,3.81,1.757,1.162.7,2.109,1.547,2.842,2.539.73.993,1.196,2.138,1.395,3.432.197,1.295.009,2.779-.562,4.453-.522,1.524-1.249,2.75-2.181,3.678-.931.927-1.978,1.59-3.141,1.988-1.163.399-2.401.565-3.716.5-1.315-.066-2.621-.32-3.916-.764l-6.986-2.391ZM207.686,55.264l-2.536,7.404,1.083.37c1.377.472,2.538.536,3.479.191.942-.344,1.646-1.194,2.11-2.55.386-1.129.317-2.133-.205-3.016-.522-.881-1.398-1.533-2.629-1.954l-1.303-.446Z"/>
    <path class="cls-3" d="M224.111,77.606c-1.254-.74-2.3-1.621-3.138-2.638-.838-1.019-1.436-2.121-1.79-3.308-.356-1.187-.454-2.428-.293-3.722.159-1.294.614-2.575,1.364-3.844.749-1.268,1.652-2.285,2.708-3.05,1.057-.765,2.188-1.284,3.396-1.557s2.451-.298,3.729-.077c1.277.222,2.514.685,3.708,1.39,1.238.732,2.295,1.628,3.169,2.688.874,1.059,1.453,2.147,1.741,3.263l-5.319,1.9c-.101-.582-.305-1.121-.616-1.617-.311-.495-.795-.937-1.452-1.325-.433-.255-.904-.419-1.416-.49s-1.02-.039-1.522.098c-.503.135-.983.37-1.442.703-.458.333-.852.776-1.177,1.328-.652,1.104-.896,2.173-.73,3.207.163,1.034.88,1.925,2.148,2.674.224.132.467.25.728.354.26.104.48.159.658.163l.715-1.209-2.552-1.507,2.473-4.187,7.275,4.298-5.118,8.663c-.506.003-1.056-.045-1.65-.145-.597-.101-1.205-.244-1.83-.432-.623-.188-1.259-.417-1.904-.687-.646-.271-1.267-.583-1.862-.935Z"/>
    <path class="cls-3" d="M244.51,68.57l9.57,8.291-3.371,3.891-5.169-4.478-1.037,1.199,4.854,4.205-3.149,3.636-4.854-4.206-1.124,1.298,5.503,4.766-3.371,3.892-9.904-8.58,12.054-13.913Z"/>
  </g>
  <g>
    <path class="cls-3" d="M119.079,108.617c13.685-15.848,33.909-25.892,56.492-25.892s42.806,10.044,56.492,25.892h8.952c-14.897-19.951-38.686-32.892-65.443-32.892s-50.547,12.941-65.443,32.892h8.952Z"/>
    <path class="cls-3" d="M232.062,206.095c-13.685,15.848-33.909,25.892-56.492,25.892s-42.806-10.044-56.492-25.892h-8.952c14.897,19.951,38.686,32.892,65.443,32.892s50.547-12.941,65.443-32.892h-8.952Z"/>
  </g>
  <g>
    <path class="cls-3" d="M59.647,108.617c6.231-14.817,15.339-28.43,27.047-40.138,23.74-23.74,55.304-36.814,88.877-36.814s65.137,13.074,88.877,36.814c11.708,11.708,20.816,25.322,27.047,40.138h13.952c-19.731-52.551-70.432-89.953-129.876-89.953S65.426,56.066,45.695,108.617h13.951Z"/>
    <path class="cls-3" d="M291.495,206.095c-6.231,14.817-15.339,28.43-27.047,40.138-23.74,23.74-55.304,36.814-88.877,36.814s-65.137-13.074-88.877-36.814c-11.708-11.708-20.816-25.322-27.047-40.138h-13.951c19.731,52.551,70.432,89.953,129.876,89.953s110.145-37.402,129.876-89.953h-13.952Z"/>
  </g>
  <g>
    <path class="cls-3" d="M33.263,108.617c7.322-21.44,19.5-41.089,35.99-57.579C97.651,22.64,135.409,7,175.571,7s77.919,15.64,106.318,44.038c16.49,16.49,28.668,36.139,35.99,57.579h7.342C304.7,45.571,245.462,0,175.571,0S46.441,45.571,25.921,108.617h7.342Z"/>
    <path class="cls-3" d="M317.878,206.095c-7.322,21.44-19.5,41.089-35.99,57.579-28.398,28.398-66.156,44.038-106.318,44.038s-77.919-15.64-106.318-44.038c-16.49-16.49-28.668-36.139-35.99-57.579h-7.342c20.52,63.046,79.758,108.617,149.65,108.617s129.13-45.571,149.65-108.617h-7.342Z"/>
  </g>
  <g>
    <circle class="cls-1" cx="175.571" cy="157.356" r="88.682"/>
    <path class="cls-3" d="M98.589,223.437c.184.405.312.845.383,1.316s.067.947-.009,1.426c-.079.478-.243.936-.495,1.374-.253.438-.604.833-1.055,1.185-.793.618-1.584.977-2.375,1.077-.791.1-1.559.016-2.303-.249-.746-.266-1.454-.681-2.125-1.245-.671-.564-1.284-1.203-1.837-1.913l-5.132-6.582,14.518-11.318,4.652,5.968c.458.588.901,1.248,1.33,1.98.428.732.727,1.482.897,2.25.17.77.143,1.537-.082,2.306-.224.77-.755,1.479-1.589,2.128-.778.607-1.574.914-2.382.918-.81.006-1.587-.217-2.335-.668l-.061.048ZM92.994,219.854l-1.968,1.534,1.135,1.456c.298.383.625.627.983.733.357.105.7.03,1.028-.225.191-.149.309-.323.352-.521s.044-.402.002-.611c-.044-.21-.117-.41-.222-.602-.106-.192-.218-.364-.334-.514l-.976-1.251ZM97.915,216.018l-1.784,1.391,1.023,1.312c.265.342.563.562.891.657.328.096.655.016.984-.239.273-.213.387-.489.344-.828-.046-.34-.218-.7-.515-1.083l-.943-1.209Z"/>
    <path class="cls-3" d="M98.449,233c.325-.339.691-.593,1.105-.761.412-.169.839-.253,1.282-.25.441.002.878.084,1.31.246.434.162.819.404,1.158.728.326.312.572.674.741,1.087.169.413.261.837.277,1.271.017.436-.051.863-.201,1.283-.149.42-.386.8-.709,1.138s-.695.595-1.113.77c-.419.176-.843.262-1.272.259-.43-.002-.852-.082-1.265-.237-.414-.157-.785-.391-1.11-.701-.339-.324-.601-.695-.789-1.114-.188-.419-.295-.846-.323-1.28-.028-.434.036-.865.192-1.291.155-.426.395-.809.718-1.146Z"/>
    <path class="cls-3" d="M113.786,242.22l-3.437,4.83-5.021-3.573,10.675-14.997,6.438,4.584c.763.542,1.453,1.156,2.071,1.841.619.686,1.081,1.428,1.382,2.229.302.801.401,1.647.298,2.541-.104.895-.503,1.828-1.197,2.803-.664.932-1.399,1.6-2.208,2.003-.808.403-1.643.606-2.507.608-.863.003-1.731-.168-2.603-.512-.871-.345-1.695-.793-2.473-1.346l-1.419-1.011ZM118.234,235.971l-1.719,2.415,1.059.754c.381.271.799.425,1.252.46.453.036.841-.172,1.162-.624.171-.24.268-.464.288-.673.021-.208-.013-.408-.101-.599-.087-.189-.211-.368-.37-.534-.158-.166-.33-.314-.513-.445l-1.058-.754Z"/>
    <path class="cls-3" d="M119.276,249.52c.231-.408.527-.742.888-1.006.359-.264.753-.447,1.183-.552.428-.104.872-.131,1.331-.079.459.053.892.195,1.299.428.391.223.719.515.982.875.264.359.455.749.576,1.167.12.417.159.849.115,1.293-.044.444-.182.869-.414,1.275-.232.406-.53.745-.894,1.017-.364.271-.754.457-1.172.559-.417.102-.845.127-1.285.074-.439-.051-.856-.188-1.247-.412-.407-.231-.751-.528-1.035-.89-.283-.36-.49-.748-.623-1.163-.132-.415-.174-.848-.126-1.3.049-.451.189-.88.421-1.286Z"/>
    <path class="cls-3" d="M137.636,250.603l-3.088,9.936-5.462-1.863,5.944-17.422,7.661,2.613-.045,10.451.123.042,5.933-8.442,7.908,2.697-5.943,17.423-5.709-1.948,3.514-9.735-.14-.074-6.597,8.71-4.135-1.41.159-10.935-.123-.042Z"/>
    <path class="cls-3" d="M157.187,263.807c.065-.464.216-.884.453-1.262.237-.379.534-.695.895-.951.358-.257.761-.445,1.208-.566.445-.122.899-.15,1.363-.085.446.062.859.212,1.237.448.377.237.701.527.967.871.267.344.462.73.586,1.158.124.43.152.875.088,1.338-.064.464-.217.889-.454,1.276-.238.387-.532.704-.882.952-.35.249-.739.431-1.166.546-.428.115-.865.142-1.311.079-.463-.064-.894-.213-1.291-.443-.396-.229-.733-.514-1.009-.85-.278-.336-.476-.724-.6-1.161-.122-.437-.151-.887-.086-1.351Z"/>
    <path class="cls-3" d="M185.15,268.312c-1.452.111-2.813-.011-4.083-.366-1.271-.354-2.391-.916-3.362-1.685s-1.763-1.729-2.372-2.883-.97-2.463-1.083-3.933c-.113-1.469.044-2.819.471-4.052.427-1.232,1.058-2.306,1.893-3.222.833-.915,1.837-1.648,3.013-2.199,1.175-.551,2.453-.879,3.836-.984,1.435-.109,2.813.02,4.137.387,1.323.369,2.422.928,3.297,1.678l-3.272,4.605c-.415-.421-.892-.744-1.432-.973-.538-.229-1.188-.313-1.948-.256-.502.039-.981.176-1.441.411-.461.234-.857.552-1.192.951-.334.399-.595.867-.779,1.402-.186.536-.253,1.124-.204,1.763.098,1.279.511,2.295,1.236,3.048.729.753,1.826,1.073,3.295.961.259-.021.525-.062.8-.127.271-.063.484-.146.632-.243l-.107-1.4-2.956.226-.37-4.848,8.427-.644.767,10.031c-.412.293-.891.568-1.437.827-.545.26-1.127.491-1.745.694-.62.204-1.271.379-1.955.527s-1.372.249-2.062.302Z"/>
    <path class="cls-3" d="M207.783,256.161l-4.832,1.446,2.005,6.7-5.928,1.775-5.278-17.636,5.903-1.767,1.789,5.978,4.833-1.446-1.79-5.978,5.953-1.782,5.278,17.635-5.928,1.775-2.006-6.701Z"/>
    <path class="cls-3" d="M217.709,239.749l5.751-3.194,15.211,12.609-5.888,3.27-2.153-1.896-5.114,2.84.518,2.806-5.729,3.181-2.596-19.614ZM223.623,243.811l.891,4.71,2.614-1.451-3.505-3.259Z"/>
    <path class="cls-3" d="M230.369,232.371l4.619-4.078,10.115,3.521.077-.068-6.371-6.826,4.404-3.889,12.183,13.801-4.736,4.182-9.637-3.216-.077.068,6.01,6.417-4.404,3.889-12.183-13.801Z"/>
    <path class="cls-3" d="M248.278,214.62l3.881-5.312,19.097,5.062-3.972,5.438-2.751-.818-3.45,4.725,1.647,2.33-3.865,5.291-10.587-16.715ZM255.351,215.825l2.784,3.901,1.765-2.415-4.549-1.486Z"/>
  </g>
  <g>
    <g>
      <path class="cls-3" d="M43.722,170.594h-8.64l-6.948-25.487h9.072l2.736,14.327h.144l2.952-14.327h8.964l3.204,14.327h.144l2.772-14.327h8.784l-7.092,25.487h-8.64l-3.6-14.399h-.144l-3.708,14.399Z"/>
      <path class="cls-3" d="M69.282,145.107h17.532v7.128h-9.468v2.195h8.892v6.66h-8.892v2.376h10.08v7.128h-18.144v-25.487Z"/>
      <path class="cls-3" d="M99.413,145.107l-3.564,10.151h-5.904l2.664-10.151h6.804Z"/>
      <path class="cls-3" d="M103.302,145.107h10.98c1.248,0,2.49.126,3.726.378,1.236.252,2.34.696,3.312,1.332s1.758,1.488,2.358,2.556c.6,1.068.9,2.406.9,4.014,0,1.561-.383,2.935-1.149,4.122-.766,1.188-1.867,2.106-3.303,2.754l6.468,10.332h-9.842l-4.883-9.108h-.251v9.108h-8.316v-25.487ZM111.546,155.87h1.679c.286,0,.602-.023.947-.072.346-.048.667-.149.964-.306.297-.156.548-.372.75-.648.202-.275.304-.642.304-1.098s-.084-.815-.25-1.08c-.167-.264-.381-.462-.643-.594s-.548-.216-.857-.252c-.31-.036-.595-.055-.857-.055h-2.036v4.104Z"/>
      <path class="cls-3" d="M129.005,145.107h17.532v7.128h-9.468v2.195h8.892v6.66h-8.892v2.376h10.08v7.128h-18.144v-25.487Z"/>
      <path class="cls-3" d="M172.673,171.243c-2.016,0-3.882-.312-5.598-.937s-3.204-1.518-4.464-2.682c-1.26-1.164-2.25-2.574-2.97-4.23-.72-1.656-1.08-3.503-1.08-5.544s.36-3.888,1.08-5.544c.72-1.655,1.704-3.071,2.952-4.248,1.248-1.175,2.712-2.081,4.392-2.718,1.68-.636,3.479-.954,5.4-.954,1.992,0,3.882.324,5.67.973,1.788.647,3.246,1.536,4.374,2.664l-5.004,6.012c-.528-.624-1.152-1.122-1.872-1.494-.72-.372-1.608-.558-2.664-.558-.696,0-1.374.138-2.034.413-.661.276-1.242.673-1.746,1.188-.504.517-.912,1.134-1.224,1.854-.312.72-.468,1.523-.468,2.411,0,1.776.462,3.222,1.386,4.338s2.406,1.674,4.446,1.674c.36,0,.732-.029,1.116-.09.384-.06.684-.149.9-.27v-1.944h-4.104v-6.731h11.7v13.932c-.601.36-1.291.69-2.07.99-.78.3-1.608.558-2.484.773s-1.794.39-2.754.522c-.96.132-1.92.198-2.88.198Z"/>
      <path class="cls-3" d="M187.145,145.107h8.64v18.107h8.46v7.38h-17.1v-25.487Z"/>
      <path class="cls-3" d="M204.676,157.706c0-2.04.36-3.882,1.08-5.526.721-1.644,1.71-3.042,2.971-4.193,1.26-1.152,2.754-2.04,4.481-2.664,1.729-.624,3.601-.937,5.616-.937s3.888.312,5.616.937c1.728.624,3.228,1.512,4.5,2.664,1.271,1.151,2.268,2.55,2.987,4.193.721,1.645,1.08,3.486,1.08,5.526s-.359,3.9-1.08,5.58c-.72,1.68-1.716,3.113-2.987,4.302-1.272,1.188-2.772,2.105-4.5,2.754-1.729.648-3.601.972-5.616.972s-3.888-.323-5.616-.972c-1.728-.648-3.222-1.566-4.481-2.754-1.261-1.188-2.25-2.622-2.971-4.302-.72-1.68-1.08-3.54-1.08-5.58ZM213.785,157.706c0,.84.126,1.608.378,2.304.252.696.6,1.296,1.044,1.8s.978.895,1.603,1.17c.623.276,1.296.414,2.016.414s1.386-.138,1.998-.414c.612-.275,1.146-.666,1.602-1.17s.811-1.104,1.062-1.8c.252-.695.378-1.464.378-2.304,0-.815-.126-1.566-.378-2.25s-.606-1.26-1.062-1.729c-.456-.468-.989-.833-1.602-1.098-.612-.264-1.278-.396-1.998-.396s-1.393.132-2.016.396c-.625.265-1.158.63-1.603,1.098-.444.469-.792,1.045-1.044,1.729s-.378,1.435-.378,2.25Z"/>
      <path class="cls-3" d="M253.277,157.346c.6.145,1.188.378,1.764.702.576.324,1.092.732,1.549,1.225.455.492.815,1.062,1.079,1.709.265.648.396,1.368.396,2.16,0,1.393-.282,2.562-.846,3.51-.564.949-1.309,1.717-2.232,2.305s-1.979,1.008-3.168,1.26c-1.188.252-2.406.378-3.654.378h-11.556v-25.487h10.476c1.032,0,2.13.078,3.295.233,1.163.156,2.237.468,3.222.937.983.468,1.8,1.151,2.448,2.052.647.899.972,2.082.972,3.546,0,1.368-.342,2.496-1.026,3.384-.684.889-1.59,1.548-2.718,1.98v.107ZM244.601,151.766v3.133h2.304c.6,0,1.092-.139,1.477-.414.383-.276.575-.702.575-1.278,0-.479-.204-.84-.611-1.08-.408-.239-.948-.36-1.62-.36h-2.124ZM244.601,160.407v3.455h2.556c.672,0,1.218-.149,1.638-.449s.631-.738.631-1.314c0-.336-.091-.612-.271-.828s-.402-.39-.666-.521c-.265-.132-.546-.222-.846-.271-.301-.048-.582-.071-.846-.071h-2.196Z"/>
      <path class="cls-3" d="M268.648,145.107h9.108l9.936,25.487h-9.323l-1.332-3.744h-8.101l-1.26,3.744h-9.072l10.044-25.487ZM273.077,153.998l-2.089,6.3h4.141l-2.052-6.3Z"/>
      <path class="cls-3" d="M289.492,145.107h8.64v18.107h8.46v7.38h-17.1v-25.487Z"/>
      <path class="cls-3" d="M314.945,171.17c-.625,0-1.206-.114-1.746-.342-.54-.229-1.015-.534-1.422-.918-.409-.384-.727-.84-.954-1.368-.229-.528-.343-1.104-.343-1.729,0-.6.114-1.163.343-1.691.228-.528.545-.99.954-1.387.407-.396.882-.707,1.422-.936.54-.228,1.121-.342,1.746-.342s1.205.114,1.745.342c.54.229,1.014.54,1.423.936.407.396.726.858.953,1.387.229.528.343,1.092.343,1.691,0,.625-.114,1.2-.343,1.729-.228.528-.546.984-.953,1.368-.409.384-.883.689-1.423.918-.54.228-1.122.342-1.745.342ZM310.624,145.107h8.64v16.127h-8.64v-16.127Z"/>
    </g>
    <rect class="cls-2" x="12.118" y="125.112" width="326.906" height="64.488" rx="13.594" ry="13.594"/>
  </g>
</svg>