<?xml version="1.0" encoding="UTF-8"?>
<svg id="Layer_1" data-name="Layer 1" xmlns="http://www.w3.org/2000/svg" viewBox="0 0 24 24">
  <defs>
    <style>
      .cls-1 {
        stroke-width: 0px;
      }

      .cls-1, .cls-2 {
        fill: none;
      }

      .cls-2 {
        stroke: #fff;
        stroke-linecap: round;
        stroke-linejoin: round;
        stroke-width: 2px;
      }
    </style>
  </defs>
  <path class="cls-1" d="m0,0h24v24H0V0Z"/>
  <path class="cls-2" d="m15.5,13c-1.93,0-3.5,1.57-3.5,3.5v1c0,1.93,1.57,3.5,3.5,3.5s3.5-1.57,3.5-3.5v-1.8"/>
  <path class="cls-2" d="m8.5,13c1.93,0,3.5,1.57,3.5,3.5v1c0,1.93-1.57,3.5-3.5,3.5s-3.5-1.57-3.5-3.5v-1.8"/>
  <path class="cls-2" d="m17.5,16c1.93,0,3.5-1.57,3.5-3.5s-1.57-3.5-3.5-3.5h-.5"/>
  <path class="cls-2" d="m19,9.3v-2.8c0-1.93-1.57-3.5-3.5-3.5s-3.5,1.57-3.5,3.5"/>
  <path class="cls-2" d="m6.5,16c-1.93,0-3.5-1.57-3.5-3.5s1.57-3.5,3.5-3.5h.5"/>
  <path class="cls-2" d="m5,9.3v-2.8c0-1.93,1.57-3.5,3.5-3.5s3.5,1.57,3.5,3.5v10"/>
</svg>