<?xml version="1.0" encoding="UTF-8"?>
<svg id="Layer_1" data-name="Layer 1" xmlns="http://www.w3.org/2000/svg" viewBox="0 0 30 30">
  <defs>
    <style>
      .cls-1 {
        fill: none;
      }

      .cls-1, .cls-2 {
        stroke-width: 0px;
      }

      .cls-2 {
        fill: #fff;
      }
    </style>
  </defs>
  <path class="cls-2" d="m15,0C10.93,0,10.42.02,8.82.09c-1.6.07-2.69.33-3.64.7-.99.38-1.82.9-2.66,1.73-.83.83-1.35,1.67-1.73,2.66-.37.95-.62,2.04-.7,3.64C.02,10.41,0,10.93,0,15s.02,4.58.09,6.18c.07,1.6.33,2.69.7,3.64.38.99.9,1.82,1.73,2.66.83.83,1.67,1.35,2.66,1.73.95.37,2.04.62,3.64.7,1.6.07,2.11.09,6.18.09s4.58-.02,6.18-.09c1.6-.07,2.69-.33,3.64-.7.99-.38,1.82-.9,2.66-1.73.83-.83,1.35-1.67,1.73-2.66.37-.95.62-2.04.7-3.64.07-1.6.09-2.11.09-6.18s-.02-4.58-.09-6.18c-.07-1.6-.33-2.69-.7-3.64-.38-.99-.9-1.82-1.73-2.66-.83-.83-1.67-1.35-2.66-1.73-.96-.37-2.05-.62-3.64-.7-1.6-.07-2.11-.09-6.18-.09h0Zm-1.35,2.7c.4,0,.85,0,1.35,0,4.01,0,4.48.01,6.06.09,1.46.07,2.26.31,2.79.52.7.27,1.2.6,1.72,1.12.53.53.85,1.02,1.12,1.72.21.53.45,1.32.52,2.78.07,1.58.09,2.06.09,6.06s-.02,4.48-.09,6.06c-.07,1.46-.31,2.26-.52,2.78-.27.7-.6,1.2-1.12,1.72-.53.53-1.02.85-1.72,1.12-.53.21-1.32.45-2.79.52-1.58.07-2.06.09-6.06.09s-4.48-.02-6.06-.09c-1.46-.07-2.26-.31-2.79-.52-.7-.27-1.2-.6-1.72-1.12-.53-.53-.85-1.02-1.12-1.72-.21-.53-.45-1.32-.52-2.78-.07-1.58-.09-2.06-.09-6.06s.01-4.48.09-6.06c.07-1.46.31-2.26.52-2.78.27-.7.6-1.2,1.12-1.72.53-.53,1.02-.85,1.72-1.12.53-.21,1.32-.45,2.79-.52,1.38-.06,1.92-.08,4.72-.08h0Zm9.35,2.49c-.99,0-1.8.81-1.8,1.8s.81,1.8,1.8,1.8,1.8-.81,1.8-1.8-.81-1.8-1.8-1.8h0Zm-8.01,2.1c-4.25,0-7.7,3.45-7.7,7.7s3.45,7.7,7.7,7.7c4.25,0,7.7-3.45,7.7-7.7s-3.45-7.7-7.7-7.7h0Zm0,2.7c2.76,0,5,2.24,5,5s-2.24,5-5,5-5-2.24-5-5,2.24-5,5-5Z"/>
  <rect class="cls-1" width="30" height="30"/>
</svg>