<?xml version="1.0" encoding="UTF-8"?>
<svg id="Layer_1" data-name="Layer 1" xmlns="http://www.w3.org/2000/svg" viewBox="0 0 24 24">
  <defs>
    <style>
      .cls-1 {
        fill: none;
      }

      .cls-1, .cls-2 {
        stroke-width: 0px;
      }

      .cls-2 {
        fill: #fff;
      }
    </style>
  </defs>
  <path class="cls-1" d="m0,0h24v24H0V0Z"/>
  <path class="cls-2" d="m4,11c.55,0,1,.45,1,1,0,.51-.38.93-.88.99h-.12s-1,0-1,0c-.55,0-1-.45-1-1,0-.51.38-.93.88-.99h.12s1,0,1,0Z"/>
  <path class="cls-2" d="m12,2c.51,0,.93.38.99.88v.12s0,1,0,1c0,.55-.45,1-1,1-.51,0-.93-.38-.99-.88v-.12s0-1,0-1c0-.55.45-1,1-1Z"/>
  <path class="cls-2" d="m21,11c.55,0,1,.45,1,1,0,.51-.38.93-.88.99h-.12s-1,0-1,0c-.55,0-1-.45-1-1,0-.51.38-.93.88-.99h.12s1,0,1,0Z"/>
  <path class="cls-2" d="m4.89,4.89c.36-.36.92-.39,1.32-.08l.09.08.7.7c.39.39.39,1.02,0,1.41-.36.35-.92.39-1.32.08l-.09-.08-.7-.7c-.39-.39-.39-1.02,0-1.41Z"/>
  <path class="cls-2" d="m17.69,4.89c.39-.39,1.02-.39,1.41,0,.35.36.39.92.08,1.32l-.08.09-.7.7c-.39.39-1.02.39-1.41,0-.35-.36-.39-.92-.08-1.32l.08-.09.7-.7Z"/>
  <path class="cls-2" d="m14,18c.55,0,1,.45,1,1,0,1.66-1.34,3-3,3s-3-1.34-3-3c0-.51.38-.93.88-.99h.12s4,0,4,0Z"/>
  <path class="cls-2" d="m12,6c3.31,0,6,2.69,6,6,0,1.89-.89,3.67-2.4,4.8-.14.1-.3.17-.47.19h-.13s-6,0-6,0c-.22,0-.43-.07-.6-.2-2.65-1.99-3.19-5.75-1.2-8.4,1.13-1.51,2.91-2.4,4.8-2.4Z"/>
</svg>