<?xml version="1.0" encoding="UTF-8"?>
<svg id="Layer_1" data-name="Layer 1" xmlns="http://www.w3.org/2000/svg" viewBox="0 0 24 24">
  <defs>
    <style>
      .cls-1 {
        stroke-width: 0px;
      }

      .cls-1, .cls-2 {
        fill: none;
      }

      .cls-2 {
        stroke: #fff;
        stroke-linecap: round;
        stroke-linejoin: round;
        stroke-width: 2px;
      }
    </style>
  </defs>
  <path class="cls-1" d="m0,0h24v24H0V0Z"/>
  <path class="cls-2" d="m11,12c0,.55.45,1,1,1s1-.45,1-1-.45-1-1-1-1,.45-1,1"/>
  <path class="cls-2" d="m12,7c-2.76,0-5,2.24-5,5s2.24,5,5,5,5-2.24,5-5"/>
  <path class="cls-2" d="m13,3.06c-4.94-.55-9.39,3-9.95,7.94-.55,4.94,3,9.39,7.94,9.95,4.94.55,9.39-3,9.95-7.94.07-.67.07-1.34,0-2"/>
  <path class="cls-2" d="m15,6v3h3l3-3h-3v-3l-3,3Z"/>
  <path class="cls-2" d="m15,9l-3,3"/>
</svg>