<?xml version="1.0" encoding="UTF-8"?>
<svg id="Layer_1" data-name="Layer 1" xmlns="http://www.w3.org/2000/svg" viewBox="0 0 30 20.97">
  <defs>
    <style>
      .cls-1 {
        fill: none;
      }

      .cls-1, .cls-2 {
        stroke-width: 0px;
      }

      .cls-2 {
        fill: #fff;
      }
    </style>
  </defs>
  <path class="cls-2" d="m29.33,3.28c-.35-1.29-1.36-2.3-2.65-2.65-1.74-.67-18.55-1-23.43.02C1.97,1,.95,2.01.61,3.3c-.78,3.44-.84,10.87.02,14.38.35,1.29,1.36,2.3,2.65,2.65,3.44.79,19.78.9,23.43,0,1.29-.35,2.3-1.36,2.65-2.65.84-3.74.89-10.71-.02-14.4ZM12.09,14.97V5.99l7.83,4.49-7.83,4.49Z"/>
  <polyline class="cls-1" points="0 20.97 0 -9.03 30 -9.03 30 20.97"/>
</svg>